<svg version="1.1" xmlns="http://www.w3.org/2000/svg" width="1024" height="1024">

<path d="M0 0 C337.92 0 675.84 0 1024 0 C1024 337.92 1024 675.84 1024 1024 C686.08 1024 348.16 1024 0 1024 C0 686.08 0 348.16 0 0 Z M460 110 C458.81792969 110.17160645 457.63585937 110.34321289 456.41796875 110.52001953 C378.53564694 121.83236612 302.37367394 155.60562904 244.5859375 209.59765625 C242.47174559 211.56174692 240.3271455 213.44950349 238.125 215.3125 C229.10201936 223.14376621 220.69562672 231.87185402 213 241 C212.15695313 241.95390625 211.31390625 242.9078125 210.4453125 243.890625 C192.18241551 264.62953147 176.71422995 287.39250174 163.35791016 311.546875 C162.14016851 313.74677937 160.90557971 315.9362472 159.66796875 318.125 C143.17546735 347.75409889 130.91034455 381.78242061 124 415 C123.7932666 415.96953613 123.5865332 416.93907227 123.37353516 417.93798828 C120.01573243 433.85618713 117.56834661 449.80733041 116 466 C115.90501221 466.9381958 115.81002441 467.8763916 115.7121582 468.84301758 C111.98027301 510.31102591 115.91918201 551.26576159 125.1953125 591.68359375 C125.42331039 592.6872271 125.42331039 592.6872271 125.65591431 593.71113586 C126.49882373 597.29342884 127.59859701 600.60301709 129 604 C128.21374741 603.98667633 127.42749481 603.97335266 126.61741638 603.95962524 C119.18802442 603.83913176 111.75910975 603.74791728 104.3289938 603.68912697 C100.50951205 603.65788502 96.69084124 603.61554718 92.87182617 603.54736328 C89.18240011 603.48190934 85.49375124 603.44624032 81.80378914 603.43073654 C80.39995152 603.41969622 78.99615388 603.39813594 77.59264946 603.36561966 C68.54324089 602.98114848 68.54324089 602.98114848 60.62133789 606.72070312 C58.75728444 608.72622963 58.0352599 609.88691085 57.2109375 612.53076172 C57.69441774 619.96858712 59.1265923 626.91627836 61 634.125 C61.34292729 635.4841103 61.68441001 636.84358567 62.0246582 638.20336914 C62.6152458 640.56092431 63.20745796 642.9180152 63.80427551 645.27400208 C65.70689938 652.78876182 67.55514586 660.31647785 69.39477158 667.8468399 C70.45479842 672.18552029 71.51687967 676.5236984 72.57851982 680.86198425 C72.75603846 681.58740921 72.93355709 682.31283417 73.11645508 683.0602417 C73.29366089 683.78435997 73.4708667 684.50847824 73.65344238 685.25453949 C74.1824335 687.41679067 74.71097216 689.57915213 75.23950195 691.74151611 C80.02627745 711.38867038 80.02627745 711.38867038 85.30265808 730.90843201 C87.82631281 739.81107501 89.91225309 748.82191684 92.05224609 757.82275391 C94.25246707 767.05669103 96.58283773 776.2287041 99.16307068 785.36408997 C101.33317797 793.09074008 103.21137846 800.87938583 105.0625 808.6875 C107.55559719 819.17037418 110.17304357 829.60157146 113 840 C113.3559021 841.33019165 113.3559021 841.33019165 113.71899414 842.68725586 C114.29793088 844.83762464 114.89538291 846.98173665 115.5 849.125 C115.68691406 849.82625 115.87382813 850.5275 116.06640625 851.25 C117.72757004 857.08057488 119.95388346 860.63592231 125 864 C124.36186371 864.00364563 123.72372742 864.00729126 123.06625366 864.01104736 C116.41473178 864.05291014 109.76389748 864.12228276 103.11279297 864.20751953 C100.63174319 864.23571696 98.15060378 864.25693755 95.66943359 864.27099609 C92.09946853 864.29244162 88.53057972 864.33910342 84.9609375 864.390625 C83.85446869 864.39185364 82.74799988 864.39308228 81.60800171 864.39434814 C75.43263833 864.51136396 71.68671536 864.8490452 67 869 C63.89181654 872.42697151 62.66518785 874.86825751 62.875 879.4375 C63.68326659 884.41339117 66.16794685 887.79708991 70 891 C73.13915777 892.04638592 75.32246639 892.12641462 78.61714345 892.12880117 C80.38590328 892.13370946 80.38590328 892.13370946 82.19039562 892.13871691 C83.49475841 892.13723328 84.7991212 892.13574966 86.14301014 892.13422108 C87.54143706 892.13617321 88.93986343 892.13856174 90.33828893 892.14134905 C94.20713177 892.14776956 98.0759539 892.14790904 101.94480106 892.14707164 C106.1439943 892.14724073 110.34318003 892.1531423 114.54236954 892.1583125 C122.88258386 892.1676541 131.22279286 892.17156316 139.56301175 892.17383147 C149.54795841 892.17678944 159.53289799 892.18548438 169.51784095 892.19424575 C193.65314093 892.21510651 217.78844214 892.22556202 241.92374904 892.23437535 C253.3353706 892.23857904 264.74699164 892.24380136 276.15861276 892.24905988 C315.20192091 892.26695038 354.24522921 892.2819481 393.28854084 892.28938007 C395.7404185 892.28985483 398.19229616 892.29033072 400.64417381 892.29080774 C401.86011375 892.29104411 403.07605369 892.29128049 404.32884029 892.29152403 C410.4896533 892.29272526 416.6504663 892.2939407 422.8112793 892.29516602 C424.03392225 892.29540617 425.2565652 892.29564632 426.51625794 892.29589374 C466.17726635 892.30379062 505.83824489 892.32723029 545.49924025 892.35972196 C587.40599116 892.39399093 629.31272459 892.41372843 671.21948975 892.41702431 C675.81648935 892.41744187 680.41348893 892.41792144 685.01048851 892.41844749 C686.70842282 892.41863228 686.70842282 892.41863228 688.44065883 892.4188208 C706.68544017 892.42115636 724.93018691 892.43683596 743.1749559 892.45728934 C761.50017826 892.47750763 779.82535889 892.48304361 798.15059034 892.47351871 C809.04725213 892.46828833 819.94377541 892.47425348 830.84041737 892.49605338 C838.11137442 892.50950464 845.38223552 892.508535 852.6531934 892.49565142 C856.80113716 892.48871682 860.94881502 892.48821371 865.09673563 892.50521151 C868.86756107 892.52053875 872.63790522 892.51757673 876.40871586 892.49980123 C878.40942337 892.49514755 880.41014681 892.51019716 882.41079763 892.52596101 C891.01139368 892.48008582 891.01139368 892.48008582 898 888 C901.16127331 884.31184781 901.52774774 880.92071277 901.34765625 876.21484375 C900.78975404 872.66056786 899.38894889 870.6404172 897 868 C892.22151518 865.01236276 888.07572596 864.56672939 882.57180786 864.60127258 C881.32067634 864.59130234 881.32067634 864.59130234 880.04426944 864.58113068 C877.25741525 864.56252082 874.47099116 864.56510461 871.68408203 864.56762695 C869.68321629 864.55860857 867.68235609 864.54828117 865.6815033 864.53674316 C860.25433115 864.50915609 854.82726379 864.49988628 849.40003061 864.49388909 C843.72651419 864.48450992 838.05307617 864.45830687 832.37960815 864.43388367 C821.63816063 864.39020248 810.8967283 864.36166542 800.15521896 864.33856028 C787.92552133 864.31151734 775.69590252 864.26760523 763.46626115 864.22227156 C738.31088349 864.12940205 713.15548111 864.05773183 688 864 C688.6397879 863.67052368 689.27957581 863.34104736 689.93875122 863.00158691 C692.90114355 861.47340651 695.86072564 859.93985617 698.8203125 858.40625 C699.82618408 857.88836914 700.83205566 857.37048828 701.8684082 856.83691406 C727.09202731 843.74373773 750.34409169 827.11780807 771.88671875 808.640625 C774.68171957 806.2505597 777.55255753 803.96842084 780.4375 801.6875 C785.63183994 797.47422866 790.30906693 792.83625269 794.96655273 788.04760742 C798.33036952 784.60039427 801.80272303 781.40943284 805.48632812 778.30688477 C807.19065588 776.83539018 808.67770643 775.28684691 810.125 773.5625 C810.69992187 772.88574219 811.27484375 772.20898438 811.8671875 771.51171875 C812.57101562 770.68285156 813.27484375 769.85398437 814 769 C814.98009319 767.88004006 815.96201994 766.76168328 816.9453125 765.64453125 C875.97627702 698.43677047 915.63713045 608.02972191 916.23828125 517.80078125 C916.25297203 515.96813469 916.25297203 515.96813469 916.26795959 514.09846497 C916.29298195 510.16979994 916.30664492 506.24123042 916.3125 502.3125 C916.31422588 501.30767704 916.31422588 501.30767704 916.31598663 500.28255463 C916.34145155 478.93073864 915.67412463 458.07342748 912 437 C911.79101074 435.74880371 911.58202148 434.49760742 911.36669922 433.20849609 C905.37169601 398.06026381 894.34059963 364.17118062 879 332 C878.57992676 331.11602539 878.15985352 330.23205078 877.72705078 329.32128906 C865.53571411 303.85373592 850.62366127 280.06660109 833 258 C831.89591797 256.60587891 831.89591797 256.60587891 830.76953125 255.18359375 C825.96884025 249.2103446 820.91053184 243.53008185 815.69921875 237.91796875 C813.2052426 235.22187586 810.75374381 232.49377316 808.3125 229.75 C802.58092574 223.37591831 796.60555755 217.40421119 790.09765625 211.82421875 C788.66728816 210.5803046 787.25899275 209.31065931 785.87109375 208.01953125 C778.68928218 201.34810223 770.9731124 195.46661579 763.13427734 189.59912109 C761.16289597 188.12205086 759.20007984 186.63428674 757.23828125 185.14453125 C726.85185209 162.25322994 691.92167593 143.54565241 656 131 C654.58170898 130.49871582 654.58170898 130.49871582 653.13476562 129.98730469 C624.47954429 119.9839948 594.76291525 112.69620956 564.57104492 109.39379883 C562.0006303 109.11034502 559.44037487 108.80232387 556.8762207 108.47143555 C543.11261526 106.76723909 529.4174661 106.64372955 515.5625 106.6875 C514.36657227 106.68932281 513.17064453 106.69114563 511.93847656 106.69302368 C494.42505513 106.73798472 477.3265597 107.26941518 460 110 Z " fill="#FDFDFD" transform="translate(0,0)" data-index="1" style="opacity: 1; visibility: hidden; fill: rgb(121, 40, 202);"></path>
<path d="M0 0 C1.17511139 -0.00045319 2.35022278 -0.00090637 3.5609436 -0.00137329 C23.26044564 0.02083434 42.29634084 1.28689991 61.75 4.375 C63.2357824 4.59176541 64.72179777 4.8069383 66.20800781 5.02075195 C77.68627158 6.7028837 88.88324951 9.08647139 100.125 11.9375 C101.41577957 12.2622229 101.41577957 12.2622229 102.7326355 12.59350586 C126.94486504 18.71676039 150.04873614 26.93250137 172.75 37.375 C173.61995605 37.76623047 174.48991211 38.15746094 175.38623047 38.56054688 C211.66054458 54.87550499 245.32713394 77.65777551 274.75 104.375 C275.38711914 104.95040527 276.02423828 105.52581055 276.68066406 106.11865234 C290.74546824 118.87808203 304.01223601 132.43007745 315.75 147.375 C316.52601563 148.30957031 317.30203125 149.24414062 318.1015625 150.20703125 C332.98784107 168.2967589 345.75934594 188.72761982 356.75 209.375 C357.49540039 210.77516357 357.49540039 210.77516357 358.25585938 212.20361328 C387.30963213 267.35606974 402.49460207 328.72147826 402.08618164 391.0234375 C402.0623386 394.90125036 402.06568884 398.77838092 402.07226562 402.65625 C402.05689528 416.67611799 401.60312538 430.47165059 399.75 444.375 C399.59345947 445.55932617 399.43691895 446.74365234 399.27563477 447.96386719 C398.84600725 450.98346907 398.37504896 453.99132978 397.875 457 C397.70210449 458.05356689 397.52920898 459.10713379 397.35107422 460.19262695 C395.8162263 469.33979175 393.99896452 478.37720982 391.75 487.375 C391.55212891 488.17309082 391.35425781 488.97118164 391.15039062 489.79345703 C383.37323866 520.7046449 372.42929519 550.31673454 357.6796875 578.58935547 C356.75386095 580.3675843 355.84520511 582.15387275 354.9375 583.94140625 C347.39324688 598.62017979 338.53851052 612.62385841 329.0625 626.125 C328.55750977 626.84606934 328.05251953 627.56713867 327.53222656 628.31005859 C324.00655969 633.24672015 324.00655969 633.24672015 321.75 634.375 C322.14208265 620.24171713 324.62047438 606.37454224 326.85663986 592.44184113 C327.41778539 588.93643651 327.97128531 585.42982441 328.52563477 581.92333984 C329.45439554 576.05468113 330.38771101 570.18676315 331.32421875 564.31933594 C332.62011456 556.1992337 333.90600306 548.07757156 335.18899345 539.95542145 C336.99497437 528.5242218 338.80402924 517.09350575 340.62109375 505.6640625 C340.80703094 504.49175079 340.99296814 503.31943909 341.18453979 502.11160278 C342.12242878 496.22109514 343.09252788 490.33816999 344.11047363 484.46099854 C347.82129558 462.93652121 345.84817001 443.01791995 333.75 424.375 C321.11546325 407.23329352 303.82419752 398.11974509 283.20239258 393.84716797 C278.57211492 393.21390604 273.98890097 393.14043522 269.3203125 393.05859375 C267.834814 393.0274221 267.834814 393.0274221 266.31930542 392.99562073 C263.17127082 392.9304968 260.02315633 392.87141371 256.875 392.8125 C254.7343669 392.76927941 252.59374174 392.72566401 250.453125 392.68164062 C245.21883324 392.57485372 239.98446288 392.47301988 234.75 392.375 C234.8553582 391.26316849 234.8553582 391.26316849 234.96284485 390.12887573 C235.05414169 389.14903717 235.14543854 388.16919861 235.23950195 387.15966797 C235.37579765 385.70752396 235.37579765 385.70752396 235.5148468 384.2260437 C235.83765694 380.31223003 235.93392503 376.42532027 235.9375 372.5 C235.94974609 371.80003906 235.96199219 371.10007812 235.97460938 370.37890625 C236.0050978 359.01688645 233.41922934 348.37001488 229.9375 337.625 C229.21577755 335.3282407 228.49442291 333.03136578 227.7734375 330.734375 C226.84372394 327.80504626 225.91148952 324.87664828 224.96972656 321.95117188 C216.04942416 294.12801918 212.79621558 264.48918876 210.75 235.4375 C207.14303983 184.52064366 200.43551094 127.85598871 161.21484375 90.9921875 C158.79692493 88.98708409 156.33564545 87.15820376 153.75 85.375 C152.29013672 84.36179688 152.29013672 84.36179688 150.80078125 83.328125 C141.56886651 77.28706886 131.73953951 73.19642661 121.0625 70.4140625 C117.76412189 69.37942974 115.81998276 68.23908542 113.125 66.125 C89.60540681 49.01013718 56.94221338 46.28765912 28.9375 50.4375 C-4.87482502 56.22257464 -36.98280994 75.42098418 -56.99438477 103.42163086 C-72.64084119 126.2052809 -79.45348194 151.33707649 -83.25 178.375 C-83.40251221 179.45938354 -83.40251221 179.45938354 -83.55810547 180.56567383 C-84.17741946 185.22189233 -84.52644635 189.87344948 -84.75 194.5625 C-84.81199585 195.81571045 -84.81199585 195.81571045 -84.87524414 197.09423828 C-85.21162053 204.41537136 -85.39676228 211.73890732 -85.57324219 219.06518555 C-86.68325926 265.04927526 -89.80986681 310.94674906 -96.875 356.4453125 C-98.16540103 365.46019745 -98.50846574 374.44342583 -98.60147095 383.54125977 C-98.61691345 384.9498723 -98.63850021 386.35843362 -98.6668396 387.7668457 C-98.92664411 402.08286692 -96.05970743 413.92806787 -86.19140625 424.6015625 C-84.24480868 426.56601876 -82.26243697 428.47841761 -80.25 430.375 C-79.24662355 431.37161211 -78.24536687 432.37038824 -77.25 433.375 C-77.97703125 434.6125 -77.97703125 434.6125 -78.71875 435.875 C-83.57083953 444.20596925 -88.04884862 452.66687817 -92.25878906 461.33935547 C-93.22150067 463.31647108 -94.20003143 465.28514565 -95.1796875 467.25390625 C-105.58513528 488.45038305 -113.00405178 510.94807468 -120.25 533.375 C-122.29974713 530.3003793 -122.84880475 528.35511706 -123.6171875 524.7890625 C-123.98650391 523.14550781 -123.98650391 523.14550781 -124.36328125 521.46875 C-124.8690993 519.16533241 -125.36914855 516.86064009 -125.86328125 514.5546875 C-126.11207031 513.45640625 -126.36085938 512.358125 -126.6171875 511.2265625 C-126.83487793 510.22447754 -127.05256836 509.22239258 -127.27685547 508.18994141 C-128.43777507 504.8318373 -129.72854226 502.88129107 -132.25 500.375 C-137.57148586 497.99326628 -142.63323032 498.08480828 -148.34860229 498.0965271 C-149.36236628 498.0907347 -150.37613026 498.0849423 -151.42061436 498.07897437 C-154.81543536 498.06197754 -158.21012037 498.05909809 -161.60498047 498.05615234 C-164.03933546 498.04685397 -166.47368726 498.03668543 -168.90803528 498.02571106 C-174.14794313 498.00404704 -179.38783187 497.98843461 -184.62777328 497.97834396 C-192.20379837 497.96374419 -199.77975566 497.93820374 -207.35574092 497.91001268 C-219.64794994 497.86456826 -231.94016873 497.82794375 -244.23242188 497.796875 C-256.17156693 497.76667983 -268.11068809 497.73232511 -280.04980469 497.69238281 C-280.78601625 497.68992126 -281.52222782 497.68745972 -282.28074883 497.68492357 C-285.97419085 497.67254878 -289.6676326 497.66009229 -293.36107421 497.64759517 C-323.99068342 497.54406257 -354.62031974 497.45499482 -385.25 497.375 C-385.88641309 495.34129403 -386.51996031 493.30669112 -387.15234375 491.27172852 C-387.50546631 490.13880875 -387.85858887 489.00588898 -388.22241211 487.83863831 C-402.04332057 441.2532042 -402.85348408 389.17802295 -396.25 341.375 C-396.10546387 340.3142627 -395.96092773 339.25352539 -395.81201172 338.16064453 C-387.66453491 280.40649274 -365.98309592 222.09498935 -332.25 174.375 C-331.43335656 173.20068575 -330.6169536 172.02620422 -329.80078125 170.8515625 C-311.6436786 144.9092716 -290.40226136 119.92119456 -266.25 99.375 C-265.280625 98.51648438 -264.31125 97.65796875 -263.3125 96.7734375 C-207.06306384 47.20205476 -134.62452607 15.75542125 -60.9375 4.125 C-59.98609131 3.97385742 -59.03468262 3.82271484 -58.05444336 3.66699219 C-38.74967814 0.80463389 -19.4947253 -0.02947244 0 0 Z " fill="#9647A5" transform="translate(514.25,106.625)" data-index="2" style="opacity: 1;"></path>
<path d="M0 0 C1.2579227 -0.00018857 2.5158454 -0.00037714 3.81188697 -0.00057143 C7.30123708 -0.00042183 10.78971292 0.03100428 14.27884614 0.0675236 C18.04219681 0.10143941 21.80559813 0.10637307 25.56907654 0.11482239 C32.08874909 0.13342845 38.60811003 0.17040618 45.12761879 0.21985435 C54.5536963 0.29132128 63.97974225 0.33509347 73.40601059 0.37210158 C88.69932941 0.43289646 103.99244106 0.51609622 119.28556824 0.61335754 C134.14164292 0.70779138 148.99771547 0.79169085 163.85392761 0.86140442 C164.76962164 0.86570503 165.68531566 0.87000565 166.62875799 0.87443658 C171.2225139 0.89594638 175.81627075 0.91724889 180.4100281 0.93844831 C218.52149078 1.1145946 256.63268527 1.32708994 294.74382019 1.56330872 C295.5522651 3.12675895 296.35449194 4.6934253 297.15415955 6.26138306 C297.60157879 7.13346311 298.04899803 8.00554316 298.50997543 8.90404987 C300.39282931 12.96209348 301.37082534 17.09548582 302.32194519 21.45002747 C302.53460022 22.37318253 302.74725525 23.29633759 302.96635437 24.24746704 C303.65418992 27.24598645 304.32407224 30.24820273 304.99382019 33.25080872 C305.47338996 35.35655671 305.95420088 37.4620224 306.436203 39.56721497 C307.41359297 43.84363248 308.38428419 48.1214821 309.34928894 52.40071106 C310.61753011 58.01809732 311.90891205 63.62982857 313.21257019 69.23908997 C313.59831674 70.89973348 313.98405899 72.560378 314.36979675 74.22102356 C314.64926147 75.42405121 314.64926147 75.42405121 314.93437195 76.65138245 C317.75199436 88.79888241 320.51396183 100.95830512 323.24382019 113.12580872 C325.64861483 123.83190787 328.13811828 134.51446146 330.68132019 145.18830872 C335.04803924 163.51747815 339.31741039 181.86900566 343.57580948 200.22357941 C344.11457588 202.54502079 344.65384062 204.86634587 345.19325256 207.18763733 C346.05624851 210.90177604 346.91794893 214.61621313 347.77868843 218.3308754 C348.09791053 219.70783325 348.41749893 221.08470624 348.73750114 222.461483 C349.46985875 225.61327245 350.19610283 228.76623693 350.91246033 231.92170715 C351.4800048 234.40771946 352.06378527 236.89006687 352.66160583 239.36897278 C353.08829559 241.20153625 353.08829559 241.20153625 353.52360535 243.07112122 C353.78227386 244.15280579 354.04094238 245.23449036 354.30744934 246.34895325 C354.9208151 250.86707264 354.63392174 254.87211577 352.49382019 258.93830872 C349.21989283 261.97838412 344.81890617 261.68912521 340.53542328 261.7003231 C339.50094984 261.70539765 338.46647639 261.71047219 337.40065527 261.71570051 C336.27080033 261.71619826 335.14094539 261.71669602 333.97685242 261.71720886 C332.77146018 261.72159112 331.56606793 261.72597337 330.32414865 261.73048842 C326.9816225 261.74153444 323.63914299 261.74809496 320.29660535 261.75266957 C316.6905557 261.75863715 313.08452318 261.77024361 309.47848511 261.78096008 C300.77451091 261.80545024 292.07053106 261.82010243 283.36653304 261.83302015 C280.90860123 261.83673333 278.45066998 261.84070642 275.99273872 261.84477282 C260.72934913 261.87000096 245.46595862 261.89205384 230.2025528 261.90450096 C226.66959632 261.90743062 223.13663988 261.9103923 219.60368347 261.91340637 C218.72559117 261.91415242 217.84749888 261.91489847 216.94279772 261.91566713 C202.70390798 261.92833312 188.46514274 261.96157586 174.22631127 262.00320821 C159.60941759 262.04559618 144.99258776 262.06919199 130.37563276 262.07442153 C122.16781718 262.07783825 113.96019654 262.08962486 105.75244141 262.12252426 C98.76612405 262.15048229 91.78004164 262.16154267 84.79367268 262.1503288 C81.22836158 262.14513199 77.66354284 262.14809432 74.09830284 262.17279434 C70.23559618 262.19933256 66.37356566 262.18726184 62.51078796 262.17131042 C61.38093302 262.18519251 60.25107808 262.1990746 59.08698511 262.21337736 C51.49478743 262.13578787 51.49478743 262.13578787 47.64374542 259.20005226 C47.0167701 258.32992689 46.38979477 257.45980152 45.74382019 256.56330872 C45.0291156 255.64066223 44.31441101 254.71801575 43.57804871 253.76741028 C41.41789307 249.99396657 40.39652976 246.49997492 39.39616394 242.29768372 C39.08871498 241.07066742 39.08871498 241.07066742 38.77505493 239.81886292 C38.32705548 238.02569928 37.88430821 236.23121728 37.44615173 234.43562317 C36.71822895 231.45864861 35.97351637 228.48628457 35.22477722 225.51448059 C33.29286351 217.83737798 31.38492216 210.15435657 29.47599792 202.47151184 C26.35411535 189.91401309 23.19109832 177.3703924 19.90609741 164.85450745 C17.39647107 155.27734156 15.00145733 145.67271526 12.61882019 136.06330872 C11.78436833 132.69835412 10.94815694 129.33384314 10.11100769 125.96955872 C9.93173737 125.24417908 9.75246704 124.51879944 9.56776428 123.7714386 C8.20829374 118.30868298 6.76301307 112.87063877 5.30656147 107.43299198 C3.49714423 100.66501319 1.75789405 93.87961499 0.02897644 87.09065247 C-0.13763552 86.43681643 -0.30424747 85.78298038 -0.47590828 85.10933113 C-1.35796711 81.64769979 -2.23903437 78.18581798 -3.11921692 74.72370911 C-3.832037 71.92053869 -4.54659195 69.11781992 -5.26277161 66.31550598 C-7.62456002 57.07228629 -9.95843492 47.82268005 -12.25617981 38.56330872 C-12.67084503 36.90105255 -12.67084503 36.90105255 -13.09388733 35.20521545 C-13.83105353 32.22511192 -14.54950895 29.24125486 -15.26008606 26.25471497 C-15.46762009 25.42036423 -15.67515411 24.58601349 -15.88897705 23.72637939 C-17.23954061 17.9080804 -18.54613697 11.46227483 -17.25617981 5.56330872 C-12.85583828 -0.96523256 -7.34761187 -0.11492057 0 0 Z " fill="#28374B" transform="translate(75.25617980957031,604.4366912841797)" data-index="3"></path>
<path d="M0 0 C3.41950921 1.63863336 4.20455216 3.76721119 5.91015625 7.125 C17.57215838 28.99801106 34.28738622 48.0727339 51.66015625 65.5625 C52.23483643 66.14193359 52.8095166 66.72136719 53.40161133 67.31835938 C56.00279431 69.90936234 58.59535186 72.35561484 61.4921875 74.61328125 C64.63248058 77.37553631 66.66947506 80.28752644 68.72265625 83.875 C69.09914307 84.51824219 69.47562988 85.16148437 69.86352539 85.82421875 C72.72760003 90.81584036 75.31504191 95.92849267 77.78515625 101.125 C78.11499512 101.81819336 78.44483398 102.51138672 78.78466797 103.22558594 C80.73784581 107.45866244 82.17812677 111.61143899 83.34765625 116.125 C87.70547409 112.99890884 90.43419621 109.55254804 93.41015625 105.1875 C104.97571804 88.4856244 104.97571804 88.4856244 113.9453125 86.5703125 C118.31796579 86.34607387 120.81183346 86.82170408 124.66015625 89 C131.68829977 96.00823377 134.55556307 106.61169763 134.72802734 116.24316406 C134.69908398 130.0886168 132.60496147 140.5898047 122.72265625 150.8046875 C115.2187166 157.78752023 106.59158742 160.11129036 96.59765625 160.6875 C95.90027344 160.73068359 95.20289063 160.77386719 94.484375 160.81835938 C92.77233703 160.92389596 91.06002064 161.0248991 89.34765625 161.125 C88.89777344 162.32511719 88.44789063 163.52523437 87.984375 164.76171875 C84.33876824 174.28080308 80.34946586 183.47612694 75.59765625 192.5 C75.13834717 193.37229248 74.67903809 194.24458496 74.20581055 195.14331055 C72.31093427 198.67910351 70.4916062 201.93649412 68.05078125 205.1328125 C65.65248507 209.34633286 65.74914282 212.85320143 65.84765625 217.625 C65.86143311 219.02818481 65.86143311 219.02818481 65.87548828 220.4597168 C66.23462803 235.17374367 68.01337919 250.71226737 71.48046875 265.01171875 C73.11608767 272.0805723 72.46229137 278.24671003 70.09765625 285.125 C69.83734619 285.88917236 69.57703613 286.65334473 69.30883789 287.44067383 C62.41877728 306.67199823 51.5336367 324.50193587 41.34765625 342.125 C14.04272501 389.37053575 -12.40477103 437.2632221 -23.65234375 491.125 C-23.83410156 491.89231445 -24.01585937 492.65962891 -24.203125 493.45019531 C-25.27767837 499.84845981 -24.84557973 506.52009617 -24.83984375 513 C-24.84056885 513.8270343 -24.84129395 514.6540686 -24.84204102 515.50616455 C-24.84060124 530.52693504 -24.23966954 545.48686199 -23.36401367 560.47998047 C-23.29509163 561.66291687 -23.29509163 561.66291687 -23.22477722 562.86975098 C-23.13844491 564.32768622 -23.04951171 565.78547125 -22.95722961 567.24304199 C-22.67543705 571.88189565 -22.6160723 576.48031159 -22.65234375 581.125 C-21.99234375 581.21136719 -21.33234375 581.29773438 -20.65234375 581.38671875 C-17.77373782 581.79527089 -14.90592071 582.25052321 -12.03857422 582.73144531 C-10.28676071 583.02036729 -8.53283054 583.29653065 -6.77783203 583.56542969 C-3.58220546 584.06629279 -0.39978014 584.62291951 2.78515625 585.1875 C3.82736328 585.3424292 4.86957031 585.4973584 5.94335938 585.65698242 C13.2654116 587.02602656 13.2654116 587.02602656 16.30615234 590.11376953 C17.85766582 592.38941779 19.13939114 594.65205378 20.34765625 597.125 C20.87875 598.13046875 21.40984375 599.1359375 21.95703125 600.171875 C27.20510194 612.60908362 27.34765625 623.39669661 27.34765625 637.125 C17.44765625 637.125 7.54765625 637.125 -2.65234375 637.125 C-3.64234375 632.67 -3.64234375 632.67 -4.65234375 628.125 C-7.00734005 626.04283124 -7.00734005 626.04283124 -9.65234375 625.125 C-10.31234375 624.795 -10.97234375 624.465 -11.65234375 624.125 C-13.43888905 624.00555524 -15.22970626 623.94777682 -17.02001953 623.91967773 C-18.14103058 623.89973251 -19.26204163 623.87978729 -20.41702271 623.85923767 C-21.63163177 623.84252518 -22.84624084 623.82581268 -24.09765625 623.80859375 C-25.33780487 623.78781265 -26.57795349 623.76703156 -27.85568237 623.74562073 C-31.15346198 623.69122295 -34.45127095 623.64099905 -37.74914551 623.59277344 C-41.11407028 623.54254766 -44.47890425 623.48686723 -47.84375 623.43164062 C-54.44654229 623.32438443 -61.04940247 623.22262811 -67.65234375 623.125 C-67.98234375 620.485 -68.31234375 617.845 -68.65234375 615.125 C-69.32797363 615.69669922 -70.00360352 616.26839844 -70.69970703 616.85742188 C-83.15756536 625.70758337 -96.83413033 624.01568873 -111.52734375 623.625 C-114.16140404 623.58481008 -116.79552351 623.5483191 -119.4296875 623.515625 C-125.83854533 623.42810113 -132.24516433 623.2947623 -138.65234375 623.125 C-138.8544043 622.24239502 -139.05646484 621.35979004 -139.26464844 620.45043945 C-139.53180664 619.28730225 -139.79896484 618.12416504 -140.07421875 616.92578125 C-140.3381543 615.77505127 -140.60208984 614.62432129 -140.87402344 613.4387207 C-141.34605508 611.42903267 -141.83765469 609.42362442 -142.36499023 607.42773438 C-142.9646869 605.06709288 -143.15054892 603.51547067 -142.65234375 601.125 C-134.64932169 590.07525104 -117.51039359 582.5606899 -105.63720703 576.19482422 C-104.33254209 575.49162105 -103.03375955 574.77737243 -101.74169922 574.05126953 C-89.14669998 567.01394904 -78.69188284 566.4992797 -64.65234375 570.125 C-64.65725327 569.51561584 -64.66216278 568.90623169 -64.66722107 568.27838135 C-64.78523037 551.12052625 -64.36159084 534.0192098 -63.71484375 516.875 C-63.52353175 511.65508035 -63.33646804 506.43502173 -63.15234375 501.21484375 C-63.10686905 499.92583664 -63.06139435 498.63682953 -63.01454163 497.3087616 C-62.64733272 486.60296107 -62.43753847 475.89838791 -62.26208496 465.18807983 C-61.23330488 405.28822333 -55.56925043 341.98621295 -34.88525391 285.3203125 C-30.47582387 273.15039387 -31.06779226 260.92667762 -31.65234375 248.125 C-32.69116699 248.06022461 -32.69116699 248.06022461 -33.75097656 247.99414062 C-39.94054472 247.532517 -45.53458182 246.6425858 -51.40234375 244.625 C-52.55114014 244.23187622 -52.55114014 244.23187622 -53.72314453 243.83081055 C-67.19102756 238.9758492 -77.57640361 231.10947926 -87.65234375 221.125 C-88.32910156 220.49722656 -89.00585938 219.86945313 -89.703125 219.22265625 C-104.52227296 205.25782724 -113.77018168 184.56050175 -117.77734375 164.9375 C-118.02959717 163.72787598 -118.28185059 162.51825195 -118.54174805 161.27197266 C-123.77515758 135.3198112 -124.870729 109.51265741 -124.65234375 83.125 C-123.75515625 82.72410156 -122.85796875 82.32320313 -121.93359375 81.91015625 C-94.471261 69.47164173 -69.54640656 52.37606552 -45.65234375 34.125 C-45.12688965 33.72571289 -44.60143555 33.32642578 -44.06005859 32.91503906 C-35.28736671 26.24768913 -26.66851765 19.4170972 -18.2890625 12.2578125 C-17.71542969 11.76853271 -17.14179687 11.27925293 -16.55078125 10.77514648 C-15.44515199 9.82996599 -14.34209635 8.88176291 -13.2421875 7.92993164 C-4.2124759 0.19852611 -4.2124759 0.19852611 0 0 Z " fill="#FECA9B" transform="translate(578.65234375,220.875)" data-index="4"></path>
<path d="M0 0 C0.969375 0.886875 1.93875 1.77375 2.9375 2.6875 C6.77805526 5.58751111 10.2123889 6.17260173 14.85546875 7.203125 C19.90463233 8.48266459 24.38413767 10.62055548 29 13 C29.95648437 13.49242187 30.91296875 13.98484375 31.8984375 14.4921875 C61.41687217 30.68471465 77.90565083 60.57386082 87.15917969 91.95654297 C94.85615956 119.81674945 97.25130149 148.62534424 99.68008423 177.31469727 C102.36502619 208.86038218 107.48866993 238.77709532 117.06298828 269.00585938 C118.41942833 273.34024728 119.7018049 277.6923019 120.9375 282.0625 C121.13666016 282.74546143 121.33582031 283.42842285 121.54101562 284.13208008 C123.7228959 291.94627852 124.18039867 299.79368648 124.1875 307.875 C124.19974609 308.60074219 124.21199219 309.32648438 124.22460938 310.07421875 C124.24071914 316.20667112 123.2387563 322.00484063 122 328 C123.28986816 327.98428955 124.57973633 327.9685791 125.90869141 327.95239258 C130.75807286 327.89752009 135.6074277 327.86344423 140.45703125 327.83520508 C142.54399247 327.82024766 144.63092298 327.79987435 146.71777344 327.77368164 C171.16623681 327.474815 193.17790257 331.2624268 211.625 348.671875 C212.40875 349.44015625 213.1925 350.2084375 214 351 C214.70125 351.66515625 215.4025 352.3303125 216.125 353.015625 C228.20314301 365.37684948 234.32810599 383.4635785 234.2421875 400.52734375 C234.23727798 401.70306694 234.23727798 401.70306694 234.23226929 402.90254211 C234.12802453 409.90466886 233.25406264 416.67024339 232.00836182 423.5625 C231.4522336 426.64515561 230.93295211 429.73384707 230.40939331 432.82217407 C230.1107064 434.58171488 229.81029806 436.34096417 229.5083313 438.09994507 C227.37757824 450.53823804 225.42040842 463.0048849 223.44678116 475.46886826 C223.12514882 477.49906065 222.8029388 479.52916058 222.4805603 481.55923462 C219.39608129 500.98726883 216.37755536 520.42450671 213.4375 539.875 C213.26760559 540.99592041 213.09771118 542.11684082 212.92266846 543.27172852 C212.44493515 546.42822045 211.96992021 549.58510699 211.49609375 552.7421875 C211.35802811 553.65495453 211.21996246 554.56772156 211.07771301 555.50814819 C210.46128883 559.64083642 209.9297108 563.74192968 209.57055664 567.90527344 C209.21123363 571.23023106 208.73296189 573.27283153 206.375 575.7734375 C205.83762207 576.36503662 205.30024414 576.95663574 204.74658203 577.56616211 C204.17020996 578.16307861 203.59383789 578.75999512 203 579.375 C201.80862012 580.67461293 200.61852241 581.97540238 199.4296875 583.27734375 C198.84413086 583.90753418 198.25857422 584.53772461 197.65527344 585.18701172 C195.36918436 587.69091991 193.24942471 590.29483328 191.125 592.9375 C188.46415263 596.21088129 185.79725525 599.47542608 183.0625 602.6875 C182.51722656 603.33074219 181.97195313 603.97398437 181.41015625 604.63671875 C180 606 180 606 178 606 C177.93149338 605.05263977 177.86298676 604.10527954 177.79240417 603.12921143 C177.13315603 594.01626568 176.47177796 584.90347645 175.80852795 575.79082108 C175.46794999 571.11061921 175.12801804 566.43037267 174.78979492 561.75 C171.34060446 513.44756631 171.34060446 513.44756631 166.6875 465.25 C166.58494904 464.31026337 166.48239807 463.37052673 166.3767395 462.40231323 C164.82140872 448.25123674 163.0150574 434.1463073 160.9375 420.0625 C160.81966156 419.24809448 160.70182312 418.43368896 160.58041382 417.59460449 C157.45508168 396.18295208 153.1348841 375.9696919 135.125 361.875 C124.00859743 354.27723466 111.12556015 349.35232692 98.6328125 344.51171875 C94.87255223 342.94696528 91.29083587 341.13748373 87.6875 339.25 C80.59177912 335.57183567 73.26886842 332.61730342 65.8125 329.75 C64.74410889 329.33782227 63.67571777 328.92564453 62.57495117 328.50097656 C52.4792957 324.67877861 42.31328825 321.23612864 31.6875 319.25 C30.41261719 319.00765625 29.13773438 318.7653125 27.82421875 318.515625 C26.42623047 318.26039063 26.42623047 318.26039063 25 318 C24.67 319.32 24.34 320.64 24 322 C20.5476872 308.12065109 18.28675193 294.24601821 17 280 C16.9057373 279.02885254 16.81147461 278.05770508 16.71435547 277.05712891 C15.49546744 262.9814768 17.68075938 254.70920521 25.61425781 243.16113281 C28.05472689 239.35510176 29.92066773 235.28660473 31.8125 231.1875 C32.18294434 230.39150391 32.55338867 229.59550781 32.93505859 228.77539062 C35.78699301 222.58438613 38.48352932 216.33543624 41 210 C42.43279297 209.96132813 42.43279297 209.96132813 43.89453125 209.921875 C56.64373481 209.3625879 67.47560237 206.98765827 76.625 197.375 C85.8459415 186.48123283 86.02140234 172.55259645 85 159 C83.5858757 151.64501657 80.83216894 145.69948131 76 140 C71.74107676 137.16071784 67.99990183 137.36719992 63 138 C56.18745205 141.4705433 51.51554138 147.40501894 47 153.4375 C40.40282036 162.18907112 40.40282036 162.18907112 37 166 C36.34 166 35.68 166 35 166 C34.71390869 165.351521 34.42781738 164.70304199 34.13305664 164.03491211 C22.5569509 137.73509357 22.5569509 137.73509357 3.79296875 116.58496094 C-6.63740857 107.36464373 -15.75637648 97.18696148 -24 86 C-24.52335938 85.2997168 -25.04671875 84.59943359 -25.5859375 83.87792969 C-33.40154282 73.40666975 -41.13844373 62.72311253 -47 51 C-52.59009039 51.35359005 -55.53862248 53.7087995 -59.5 57.375 C-60.73741866 58.47769437 -61.97706209 59.57789648 -63.21875 60.67578125 C-63.84652344 61.23346191 -64.47429687 61.79114258 -65.12109375 62.36572266 C-67.99982835 64.86965319 -70.98688782 67.22330643 -74 69.5625 C-74.57975586 70.01302734 -75.15951172 70.46355469 -75.75683594 70.92773438 C-76.92660001 71.83574669 -78.09684545 72.74313922 -79.26757812 73.64990234 C-80.97451386 74.98013834 -82.66871945 76.32493366 -84.359375 77.67578125 C-111.2608197 99.13460202 -140.1391829 119.6151722 -172 133 C-172.29731311 149.77303352 -171.65646829 166.30570296 -170 183 C-169.85522217 184.47533203 -169.85522217 184.47533203 -169.70751953 185.98046875 C-166.32203382 218.9347533 -158.18391 246.69359157 -135 271 C-134.46246094 271.61230469 -133.92492187 272.22460938 -133.37109375 272.85546875 C-119.88639104 287.62442886 -99.16927908 294.93291535 -80 298 C-80 304.93 -80 311.86 -80 319 C-83.4340625 319.7425 -83.4340625 319.7425 -86.9375 320.5 C-122.8733882 328.745649 -162.83044302 340.83932361 -189 368 C-197.60104691 365.148316 -203.48240102 357.66014421 -207.5 349.8125 C-211.76592996 340.74739883 -212.42096972 333.08173906 -212.4375 323.125 C-212.43889984 322.43528107 -212.44029968 321.74556213 -212.44174194 321.03494263 C-212.41496492 304.61643322 -210.24475927 288.53608834 -208.07931519 272.28916931 C-202.69163107 231.61933633 -200.22873815 191.09888666 -199.203125 150.12109375 C-199.18503281 149.40118759 -199.16694061 148.68128143 -199.14830017 147.93955994 C-199.07272276 144.92736068 -198.99802044 141.91515999 -198.92773438 138.90283203 C-197.95345748 100.70421876 -189.70975362 60.58584243 -164 31 C-162.98679687 29.78763672 -162.98679687 29.78763672 -161.953125 28.55078125 C-123.8896077 -15.69458466 -50.65919463 -32.71187088 0 0 Z " fill="#372014" transform="translate(627,171)" data-index="5"></path>
<path d="M0 0 C0.33 0 0.66 0 1 0 C1.46055217 7.06738237 -0.20379675 12.58472506 -2.4375 19.25 C-10.67355729 44.97720001 -16.93941975 71.29280448 -21 98 C-21.10356812 98.6721051 -21.20713623 99.34421021 -21.31384277 100.03668213 C-27.63353901 141.12181114 -29.35445749 182.03656308 -30.29711914 223.53735352 C-30.37375627 226.90901932 -30.45046827 230.28068337 -30.52734375 233.65234375 C-30.55558196 234.89450873 -30.55558196 234.89450873 -30.58439064 236.16176796 C-30.94523063 251.906472 -31.47656546 267.63935608 -32.125 283.375 C-32.16956329 284.46019928 -32.21412659 285.54539856 -32.26004028 286.66348267 C-32.49886465 292.44267571 -32.74519827 298.22149002 -33 304 C-34.24402588 303.84281494 -35.48805176 303.68562988 -36.76977539 303.52368164 C-51.84131324 301.61936389 -60.88979639 303.69925537 -74 311 C-75.74984996 311.93908171 -77.4998561 312.87787245 -79.25 313.81640625 C-88.92761954 319.09953878 -97.90988225 324.75399769 -106.3828125 331.8203125 C-109 334 -109 334 -112 336 C-112.15968262 335.28610107 -112.31936523 334.57220215 -112.48388672 333.83666992 C-118.95466066 304.94977279 -125.60839507 276.10402396 -132.50585938 247.31591797 C-133.2982133 244.00742236 -134.08585257 240.69786063 -134.86914062 237.38720703 C-135.07182556 236.53074585 -135.2745105 235.67428467 -135.4833374 234.79187012 C-135.91175005 232.98143995 -136.34000938 231.17097349 -136.76812744 229.36047363 C-138.31062877 222.85571913 -139.88490501 216.35903465 -141.47111416 209.86483002 C-142.90627829 203.98221361 -144.32025762 198.09469058 -145.72255039 192.20415497 C-146.5969482 188.53501941 -147.48069611 184.86872132 -148.38754272 181.2074585 C-149.24688545 177.73700496 -150.08040985 174.26128238 -150.89600754 170.78029823 C-151.34882007 168.87718474 -151.82811953 166.9804339 -152.30825806 165.08403015 C-154.14537207 157.10654762 -153.84468045 151.64601764 -151 144 C-150.45230282 142.23402829 -149.91108612 140.4660222 -149.37890625 138.6953125 C-142.54693456 117.48424672 -134.35329613 96.54663894 -123.93994141 76.82128906 C-122.91396237 74.83328812 -121.94390341 72.82370744 -120.98046875 70.8046875 C-117.33973713 63.20765941 -113.69999807 56.29932672 -108 50 C-107.45472656 49.36320313 -106.90945313 48.72640625 -106.34765625 48.0703125 C-87.54308645 27.57868064 -58.53023361 19.33428051 -33 11 C-32.00581055 10.67451172 -31.01162109 10.34902344 -29.98730469 10.01367188 C-7.3289098 2.63355451 -7.3289098 2.63355451 0 3 C0 2.01 0 1.02 0 0 Z " fill="#28374B" transform="translate(547,487)" data-index="6"></path>
<path d="M0 0 C39.50039626 -0.06865536 79.00078475 -0.12152332 118.50122875 -0.15319599 C123.16382382 -0.15694814 127.82641878 -0.16083111 132.48901367 -0.16479492 C133.41725869 -0.16558185 134.34550371 -0.16636878 135.30187737 -0.16717956 C150.33507395 -0.18023614 165.36823614 -0.20389139 180.40141232 -0.23145839 C195.82498322 -0.25950555 211.24853611 -0.2761748 226.67213148 -0.28226548 C236.19055231 -0.28638335 245.70887593 -0.29939287 255.22726684 -0.3237494 C261.75295386 -0.33959807 268.27859056 -0.34440233 274.80429543 -0.34050413 C278.57019984 -0.33858123 282.3359343 -0.34154453 286.10180855 -0.35761642 C290.1851356 -0.37491585 294.26810035 -0.36896656 298.35145569 -0.36076355 C300.13599823 -0.37387134 300.13599823 -0.37387134 301.95659214 -0.38724393 C309.280878 -0.34737326 314.92094179 -0.07638568 320.33811951 5.33609009 C322.09961184 8.15967271 322.8820617 10.37982516 323.59008789 13.62255859 C323.84406845 14.74924957 324.09804901 15.87594055 324.35972595 17.03677368 C324.62386795 18.26987274 324.88800995 19.5029718 325.16015625 20.7734375 C325.45570117 22.10176442 325.75278969 23.42974869 326.05128479 24.75741577 C326.69853659 27.64094226 327.33947864 30.52577721 327.97686768 33.41149902 C329.56319357 40.56172239 331.24025955 47.69101144 332.90607262 54.82304001 C333.91254255 59.13624458 334.91331011 63.45077248 335.91479492 67.76513672 C336.33048059 69.55483803 336.74620158 71.34453115 337.16195679 73.13421631 C337.37106564 74.03437218 337.58017448 74.93452805 337.79561996 75.86196136 C338.11335058 77.22966549 338.11335058 77.22966549 338.4375 78.625 C338.6529459 79.55243263 338.8683918 80.47986526 339.09036636 81.43540192 C344.91467465 106.50548041 350.76967084 131.56792817 356.68261719 156.61724854 C361.3316401 176.31347294 365.97097797 196.01140753 370.4375 215.75 C370.62194672 216.55983337 370.80639343 217.36966675 370.99642944 218.20404053 C371.5005828 220.42155128 371.99939146 222.64018501 372.49609375 224.859375 C372.76607178 226.06045898 373.0360498 227.26154297 373.31420898 228.49902344 C374.06463712 232.32997375 374.55699561 236.12244621 375 240 C382.75607501 240.0346615 390.51066384 240.01437491 398.26660156 239.95727539 C400.90068377 239.94419862 403.53485789 239.94334317 406.16894531 239.95532227 C409.97290887 239.97044021 413.7743659 239.94047883 417.578125 239.90234375 C419.32261932 239.92372658 419.32261932 239.92372658 421.10235596 239.94554138 C429.02918976 239.80761741 434.03893795 237.87556893 440.65155029 233.49952698 C443 232 443 232 445 232 C445.33 234.64 445.66 237.28 446 240 C446.6882486 239.99333817 447.37649719 239.98667633 448.08560181 239.97981262 C455.25575077 239.91338744 462.42581216 239.86816931 469.59619141 239.83520508 C472.27149721 239.82182449 474.94632149 239.79966615 477.62158203 239.77368164 C481.46913751 239.73724916 485.31636586 239.72026172 489.1640625 239.70703125 C490.95500839 239.68380547 490.95500839 239.68380547 492.78213501 239.66011047 C499.6163028 239.65872869 504.65271485 239.87586719 509.875 244.75 C511 247 511 247 511 254 C520.9 254 530.8 254 541 254 C539 259 539 259 538 260 C538.91068141 260.00146521 538.91068141 260.00146521 539.83976042 260.00296003 C575.8139208 260.06121815 611.78801664 260.13500438 647.76210187 260.22898628 C652.08049601 260.24025459 656.39889047 260.25139302 660.71728516 260.26245117 C661.57700835 260.26465486 662.43673154 260.26685854 663.32250695 260.269129 C677.24734213 260.30451198 691.17217725 260.32937046 705.09704073 260.35034702 C719.38272248 260.3721011 733.66834585 260.40514778 747.95397794 260.44870156 C756.77065963 260.47522505 765.58726855 260.49291528 774.40398817 260.49934604 C780.44800288 260.50459779 786.49192597 260.52080759 792.53589161 260.54566566 C796.0241886 260.55968801 799.51232156 260.56884876 803.0006485 260.56500816 C806.78225183 260.56336277 810.56334555 260.57999302 814.34487915 260.60127258 C815.44799521 260.59642501 816.55111127 260.59157743 817.68765509 260.58658296 C823.19107192 260.63784884 827.29142606 260.81072497 832 264 C835.08847593 267.41357866 836.26431338 270.03705837 836.4375 274.5625 C836.16355479 279.82931756 834.59475731 282.52248632 830.72749668 286.10543305 C825.61717223 289.38714311 819.32737224 288.54404964 813.48505306 288.50057125 C812.08282196 288.5044413 810.68059479 288.51006446 809.27837691 288.51728085 C805.41284552 288.53206257 801.54771785 288.52185082 797.682199 288.50766886 C793.48152278 288.49664314 789.28090395 288.5087682 785.0802322 288.51797634 C777.71398018 288.53090234 770.34784834 288.52890058 762.98159599 288.51719666 C752.0279647 288.49984043 741.07442824 288.50530355 730.12079209 288.51536357 C710.56020021 288.53257468 690.99966429 288.52700265 671.43907355 288.51200638 C654.32216601 288.4989677 637.20527792 288.4937561 620.08836555 288.49632454 C618.9540856 288.49648495 617.81980565 288.49664537 616.65115358 288.49681065 C612.04704782 288.4974742 607.44294207 288.49817661 602.83883632 288.49893599 C559.62743241 288.50596391 516.41606272 288.49045554 473.20466751 288.46431253 C434.79048699 288.44119501 396.37634411 288.43580946 357.9621582 288.44604492 C348.12570669 288.44864681 338.28925517 288.45123178 328.45280361 288.45364285 C327.24192542 288.45394029 326.03104722 288.45423774 324.78347575 288.4545442 C292.71045259 288.46215406 260.63743253 288.45575147 228.56441075 288.44494683 C225.11454023 288.44379899 221.66466971 288.44265581 218.21479918 288.44152 C215.92612474 288.44076475 213.63745031 288.43999911 211.34877587 288.43922299 C194.23942052 288.43355775 177.13007491 288.43489927 160.02071953 288.43945122 C140.57292071 288.44455169 121.12515839 288.43873866 101.67736869 288.41855692 C90.78495446 288.40754512 79.89261193 288.4048009 69.00019547 288.41384545 C61.73343955 288.41904682 54.46674525 288.41341446 47.20000228 288.39879211 C43.05373447 288.3907517 38.90761208 288.38752724 34.76134484 288.39736467 C30.99326786 288.4062035 27.22547136 288.40136969 23.45742018 288.38538523 C21.45575045 288.38048005 19.4540614 288.39035258 17.45241258 288.40073386 C16.26874477 288.39296708 15.08507697 288.3852003 13.86554044 288.37719816 C12.84567774 288.37677114 11.82581503 288.37634413 10.77504739 288.37590417 C6.47147191 287.79294765 3.85491523 285.80741994 0.75 282.875 C-1.62455596 278.97394377 -2.32996521 275.55512953 -2 271 C0.17523371 266.38850454 3.20794863 262.88857196 8 261 C12.62594496 260.40787641 17.24428682 260.48145932 21.89930725 260.52571106 C23.33635489 260.52468249 24.77340216 260.52189162 26.21044344 260.51749247 C30.15515401 260.51049201 34.09941788 260.52841654 38.04405892 260.55039656 C42.29970553 260.56972931 46.55533831 260.56591098 50.8110199 260.56486511 C58.18398912 260.56617834 65.55681195 260.58203106 72.92973518 260.60764503 C83.59516364 260.64458766 94.26052534 260.65847076 104.92601018 260.66654237 C122.23725428 260.68017611 139.54842273 260.71094285 156.85961914 260.75317383 C173.66332274 260.79411655 190.4670184 260.82953045 207.27075195 260.85571289 C208.30582306 260.85732919 209.34089416 260.85894548 210.40733106 260.86061076 C221.7045606 260.87808718 233.00179191 260.89393937 244.29902554 260.90852642 C245.29156995 260.90981425 246.28411437 260.91110208 247.30673588 260.91242894 C253.25798909 260.92014856 253.25798909 260.92014856 259.20924252 260.92769953 C270.83076487 260.94235107 282.452255 260.96199388 294.07375204 260.9905025 C301.36138365 261.00833619 308.64901667 261.02310028 315.93665964 261.03544859 C320.95277649 261.04417005 325.9688586 261.05704749 330.9849568 261.07317548 C334.02551431 261.08189506 337.06606702 261.08644549 340.10663479 261.08974978 C341.50088657 261.09210848 342.8951367 261.09619667 344.2893777 261.10216806 C346.18179675 261.11004767 348.07424045 261.11113569 349.96667576 261.11187458 C351.01866612 261.11442259 352.07065648 261.1169706 353.15452534 261.11959583 C358.58453834 260.9744316 358.58453834 260.9744316 362.875 258.0625 C366.06762883 249.37145486 361.64187031 238.28777045 359.61328125 229.5546875 C359.26989309 228.05716476 358.92698224 226.55953249 358.58451843 225.0617981 C357.86616301 221.92590254 357.14380706 218.79096668 356.41821289 215.65673828 C355.50600188 211.71611531 354.60102804 207.77387925 353.69873238 203.83097553 C350.26820432 188.84538243 346.77369556 173.88384462 342.9959259 158.98127747 C340.82142013 150.37846371 338.87797681 141.73415783 337 133.0625 C334.86203443 123.21534899 332.6313844 113.3987755 330.2578125 103.60546875 C327.76850336 93.32401964 325.39100685 83.02012414 323.0546875 72.703125 C322.71058097 71.18573843 322.3664443 69.66835869 322.02227783 68.15098572 C320.61412798 61.93964472 319.20751002 55.72796626 317.80810547 49.51464844 C316.93665462 45.64633855 316.06024782 41.77917855 315.18078995 37.91268158 C314.85290219 36.4668963 314.52678855 35.02070725 314.20266342 33.57407379 C311.79211271 22.81907124 309.10003558 12.25008896 305 2 C204.35 2 103.7 2 0 2 C0 1.34 0 0.68 0 0 Z " fill="#151C27" transform="translate(65,604)" data-index="7"></path>
<path d="M0 0 C-1.59311979 5.82871971 -4.53839914 10.64011343 -7.5625 15.8125 C-16.24531453 30.93055084 -24.1610635 46.4320555 -32 62 C-32.58233398 63.15387207 -33.16466797 64.30774414 -33.76464844 65.49658203 C-44.41246424 86.72538634 -53.54454466 108.56023818 -59.3828125 131.625 C-59.95597739 133.83059653 -60.59450671 136.00528816 -61.25 138.1875 C-68.1410452 162.96809166 -64.19504198 191.99298399 -62.71240234 217.35839844 C-62.66634857 218.14652924 -62.6202948 218.93466003 -62.57284546 219.74667358 C-62.48621924 221.20388874 -62.39711895 222.66096025 -62.30484009 224.11782837 C-62.02317937 228.75675836 -61.96372799 233.35523995 -62 238 C-61.01 238.12955078 -61.01 238.12955078 -60 238.26171875 C-57.12139407 238.67027089 -54.25357696 239.12552321 -51.38623047 239.60644531 C-49.63441696 239.89536729 -47.88048679 240.17153065 -46.12548828 240.44042969 C-42.92986171 240.94129279 -39.74743639 241.49791951 -36.5625 242.0625 C-35.52029297 242.2174292 -34.47808594 242.3723584 -33.40429688 242.53198242 C-26.08224465 243.90102656 -26.08224465 243.90102656 -23.04150391 246.98876953 C-21.48999043 249.26441779 -20.20826511 251.52705378 -19 254 C-18.20335937 255.50820313 -18.20335937 255.50820313 -17.390625 257.046875 C-12.14255431 269.48408362 -12 280.27169661 -12 294 C-21.9 294 -31.8 294 -42 294 C-42.66 291.03 -43.32 288.06 -44 285 C-46.3549963 282.91783124 -46.3549963 282.91783124 -49 282 C-49.66 281.67 -50.32 281.34 -51 281 C-52.7865453 280.88055524 -54.57736251 280.82277682 -56.36767578 280.79467773 C-57.48868683 280.77473251 -58.60969788 280.75478729 -59.76467896 280.73423767 C-60.97928802 280.71752518 -62.19389709 280.70081268 -63.4453125 280.68359375 C-64.68546112 280.66281265 -65.92560974 280.64203156 -67.20333862 280.62062073 C-70.50111823 280.56622295 -73.7989272 280.51599905 -77.09680176 280.46777344 C-80.46172653 280.41754766 -83.8265605 280.36186723 -87.19140625 280.30664062 C-93.79419854 280.19938443 -100.39705872 280.09762811 -107 280 C-107.33 277.36 -107.66 274.72 -108 272 C-108.67562988 272.57169922 -109.35125977 273.14339844 -110.04736328 273.73242188 C-122.50522161 282.58258337 -136.18178658 280.89068873 -150.875 280.5 C-153.50906029 280.45981008 -156.14317976 280.4233191 -158.77734375 280.390625 C-165.18620158 280.30310113 -171.59282058 280.1697623 -178 280 C-178.20206055 279.11739502 -178.40412109 278.23479004 -178.61230469 277.32543945 C-178.87946289 276.16230225 -179.14662109 274.99916504 -179.421875 273.80078125 C-179.68581055 272.65005127 -179.94974609 271.49932129 -180.22167969 270.3137207 C-180.69371133 268.30403267 -181.18531094 266.29862442 -181.71264648 264.30273438 C-182.31234315 261.94209288 -182.49820517 260.39047067 -182 258 C-173.99697794 246.95025104 -156.85804984 239.4356899 -144.98486328 233.06982422 C-143.68019834 232.36662105 -142.3814158 231.65237243 -141.08935547 230.92626953 C-128.49435623 223.88894904 -118.03953909 223.3742797 -104 227 C-104.00490952 226.39061584 -104.00981903 225.78123169 -104.01487732 225.15338135 C-104.13288662 207.99552625 -103.70924709 190.8942098 -103.0625 173.75 C-102.871188 168.53008035 -102.68412429 163.31002173 -102.5 158.08984375 C-102.4545253 156.80083664 -102.4090506 155.51182953 -102.36219788 154.1837616 C-101.99498897 143.47796107 -101.78519472 132.77338791 -101.60974121 122.06307983 C-101.10372509 92.60071632 -98.9574141 63.51585665 -95 34.3125 C-94.87452789 33.38243134 -94.74905579 32.45236267 -94.61978149 31.49411011 C-93.21355733 21.19436915 -91.60576137 11.07537961 -89 1 C-88.269021 1.48605713 -87.53804199 1.97211426 -86.78491211 2.47290039 C-71.80652139 12.36041219 -55.20898024 18.9449957 -36.93603516 15.625 C-25.76073513 13.13526038 -9.8489763 0 0 0 Z " fill="#F7F8F8" transform="translate(618,564)" data-index="8"></path>
<path d="M0 0 C0.85567062 -0.00960754 1.71134125 -0.01921509 2.59294128 -0.02911377 C3.99580132 -0.03548859 3.99580132 -0.03548859 5.42700195 -0.04199219 C6.3912056 -0.04769226 7.35540924 -0.05339233 8.34883118 -0.05926514 C10.40262754 -0.06874113 12.45643928 -0.07525937 14.51025391 -0.07910156 C17.60713816 -0.08868721 20.70332402 -0.11963388 23.80004883 -0.15136719 C48.68288697 -0.28580308 69.80496163 5.34698535 87.9777832 23.16113281 C88.6790332 23.82628906 89.3802832 24.49144531 90.1027832 25.17675781 C102.18092621 37.53798229 108.30588919 55.62471132 108.2199707 72.68847656 C108.21669769 73.47229202 108.21342468 74.25610748 108.21005249 75.06367493 C108.10580773 82.06580168 107.23184585 88.83137621 105.98614502 95.72363281 C105.43001681 98.80628842 104.91073531 101.89497989 104.38717651 104.98330688 C104.08848961 106.74284769 103.78808126 108.50209699 103.4861145 110.26107788 C101.35536144 122.69937085 99.39819162 135.16601771 97.42456436 147.63000107 C97.10293202 149.66019347 96.780722 151.69029339 96.45834351 153.72036743 C93.37386449 173.14840164 90.35533856 192.58563953 87.4152832 212.03613281 C87.16044159 213.71751343 87.16044159 213.71751343 86.90045166 215.43286133 C86.42271835 218.58935327 85.94770342 221.7462398 85.47387695 224.90332031 C85.33581131 225.81608734 85.19774567 226.72885437 85.05549622 227.66928101 C84.43907203 231.80196924 83.907494 235.90306249 83.54833984 240.06640625 C83.18901683 243.39136388 82.71074509 245.43396434 80.3527832 247.93457031 C79.81540527 248.52616943 79.27802734 249.11776855 78.72436523 249.72729492 C77.85980713 250.62266968 77.85980713 250.62266968 76.9777832 251.53613281 C75.78640333 252.83574575 74.59630562 254.13653519 73.4074707 255.43847656 C72.82191406 256.06866699 72.23635742 256.69885742 71.63305664 257.34814453 C69.34696756 259.85205272 67.22720791 262.45596609 65.1027832 265.09863281 C62.44193584 268.3720141 59.77503845 271.63655889 57.0402832 274.84863281 C56.22237305 275.81349609 56.22237305 275.81349609 55.38793945 276.79785156 C53.9777832 278.16113281 53.9777832 278.16113281 51.9777832 278.16113281 C51.90927658 277.21377258 51.84076996 276.26641235 51.77018738 275.29034424 C51.11093923 266.1773985 50.44956116 257.06460926 49.78631115 247.95195389 C49.44573319 243.27175203 49.10580124 238.59150549 48.76757812 233.91113281 C45.31838766 185.60869912 45.31838766 185.60869912 40.6652832 137.41113281 C40.56273224 136.47139618 40.46018127 135.53165955 40.35452271 134.56344604 C38.79919192 120.41236956 36.9928406 106.30744012 34.9152832 92.22363281 C34.79744476 91.40922729 34.67960632 90.59482178 34.55819702 89.7557373 C31.4250006 68.29020674 27.09276572 48.04165115 8.9777832 33.97363281 C1.84069451 29.05606671 -6.11764722 25.64544484 -14.0222168 22.16113281 C-13.70768555 21.65066406 -13.3931543 21.14019531 -13.0690918 20.61425781 C-9.834031 15.11855212 -7.6954845 9.65796895 -5.8190918 3.56738281 C-4.5781059 -0.17990792 -3.7504351 0.03391908 0 0 Z " fill="#161E29" transform="translate(753.022216796875,498.8388671875)" data-index="9"></path>
<path d="M0 0 C6.61469594 2.33547951 13.34419203 3.78315453 20.20507812 5.20385742 C21.43081543 5.46215332 22.65655273 5.72044922 23.91943359 5.98657227 C27.65928939 6.77317331 31.40064177 7.5522197 35.14257812 8.32885742 C36.24875488 8.55895508 37.35493164 8.78905273 38.49462891 9.02612305 C40.58489503 9.46091379 42.67530414 9.89501777 44.76586914 10.32836914 C46.75292219 10.74242607 48.73910945 11.1606618 50.72436523 11.58325195 C55.28054699 12.55035692 59.82682403 13.45990421 64.42382812 14.21166992 C77.4782555 16.4595542 77.4782555 16.4595542 80.95507812 21.32885742 C82.11523438 23.71948242 82.11523438 23.71948242 83.14257812 26.32885742 C83.59503906 27.25182617 84.0475 28.17479492 84.51367188 29.12573242 C90.24081006 41.39121817 90.14257812 52.70631651 90.14257812 66.32885742 C80.24257813 66.32885742 70.34257813 66.32885742 60.14257812 66.32885742 C59.15257812 61.87385742 59.15257812 61.87385742 58.14257812 57.32885742 C55.78758182 55.24668866 55.78758182 55.24668866 53.14257812 54.32885742 C52.48257813 53.99885742 51.82257813 53.66885742 51.14257812 53.32885742 C49.35603282 53.20941266 47.56521562 53.15163424 45.77490234 53.12353516 C44.09338577 53.09361732 44.09338577 53.09361732 42.37789917 53.06309509 C40.55598557 53.03802635 40.55598557 53.03802635 38.69726562 53.01245117 C36.83704269 52.98127953 36.83704269 52.98127953 34.9392395 52.94947815 C31.6414599 52.89508037 28.34365093 52.84485647 25.04577637 52.79663086 C21.6808516 52.74640508 18.31601763 52.69072465 14.95117188 52.63549805 C8.34837958 52.52824185 1.74551941 52.42648553 -4.85742188 52.32885742 C-5.35242188 48.36885742 -5.35242188 48.36885742 -5.85742188 44.32885742 C-6.8708667 45.18640625 -6.8708667 45.18640625 -7.90478516 46.0612793 C-20.36264349 54.91144079 -34.03920845 53.21954615 -48.73242188 52.82885742 C-51.36648217 52.7886675 -54.00060163 52.75217653 -56.63476562 52.71948242 C-63.04362346 52.63195856 -69.45024246 52.49861972 -75.85742188 52.32885742 C-76.05948242 51.44625244 -76.26154297 50.56364746 -76.46972656 49.65429688 C-76.73688477 48.49115967 -77.00404297 47.32802246 -77.27929688 46.12963867 C-77.54323242 44.97890869 -77.80716797 43.82817871 -78.07910156 42.64257812 C-78.5511332 40.63289009 -79.04273282 38.62748184 -79.57006836 36.6315918 C-80.16976503 34.2709503 -80.35562704 32.7193281 -79.85742188 30.32885742 C-71.85439981 19.27910846 -54.71547172 11.76454733 -42.84228516 5.39868164 C-41.53762021 4.69547847 -40.23883767 3.98122986 -38.94677734 3.25512695 C-26.17224779 -3.88250417 -13.98332889 -5.05259873 0 0 Z " fill="#FDCA9B" transform="translate(515.857421875,791.671142578125)" data-index="10"></path>
<path d="M0 0 C39.50039626 -0.06865536 79.00078475 -0.12152332 118.50122875 -0.15319599 C123.16382382 -0.15694814 127.82641878 -0.16083111 132.48901367 -0.16479492 C133.41725869 -0.16558185 134.34550371 -0.16636878 135.30187737 -0.16717956 C150.33507395 -0.18023614 165.36823614 -0.20389139 180.40141232 -0.23145839 C195.82498322 -0.25950555 211.24853611 -0.2761748 226.67213148 -0.28226548 C236.19055231 -0.28638335 245.70887593 -0.29939287 255.22726684 -0.3237494 C261.75295386 -0.33959807 268.27859056 -0.34440233 274.80429543 -0.34050413 C278.57019984 -0.33858123 282.3359343 -0.34154453 286.10180855 -0.35761642 C290.1851356 -0.37491585 294.26810035 -0.36896656 298.35145569 -0.36076355 C300.13599823 -0.37387134 300.13599823 -0.37387134 301.95659214 -0.38724393 C309.280878 -0.34737326 314.92094179 -0.07638568 320.33811951 5.33609009 C322.09961184 8.15967271 322.8820617 10.37982516 323.59008789 13.62255859 C323.84406845 14.74924957 324.09804901 15.87594055 324.35972595 17.03677368 C324.62386795 18.26987274 324.88800995 19.5029718 325.16015625 20.7734375 C325.45570117 22.10176442 325.75278969 23.42974869 326.05128479 24.75741577 C326.69853659 27.64094226 327.33947864 30.52577721 327.97686768 33.41149902 C329.56319357 40.56172239 331.24025955 47.69101144 332.90607262 54.82304001 C333.91254255 59.13624458 334.91331011 63.45077248 335.91479492 67.76513672 C336.33048059 69.55483803 336.74620158 71.34453115 337.16195679 73.13421631 C337.37106564 74.03437218 337.58017448 74.93452805 337.79561996 75.86196136 C338.11335058 77.22966549 338.11335058 77.22966549 338.4375 78.625 C338.6529459 79.55243263 338.8683918 80.47986526 339.09036636 81.43540192 C344.91467465 106.50548041 350.76967084 131.56792817 356.68261719 156.61724854 C361.3316401 176.31347294 365.97097797 196.01140753 370.4375 215.75 C370.62194672 216.55983337 370.80639343 217.36966675 370.99642944 218.20404053 C371.5005828 220.42155128 371.99939146 222.64018501 372.49609375 224.859375 C372.76607178 226.06045898 373.0360498 227.26154297 373.31420898 228.49902344 C374.06463712 232.32997375 374.55699561 236.12244621 375 240 C382.75607501 240.0346615 390.51066384 240.01437491 398.26660156 239.95727539 C400.90068377 239.94419862 403.53485789 239.94334317 406.16894531 239.95532227 C409.97290887 239.97044021 413.7743659 239.94047883 417.578125 239.90234375 C419.32261932 239.92372658 419.32261932 239.92372658 421.10235596 239.94554138 C429.02918976 239.80761741 434.03893795 237.87556893 440.65155029 233.49952698 C443 232 443 232 445 232 C445.33 234.64 445.66 237.28 446 240 C446.6882486 239.99333817 447.37649719 239.98667633 448.08560181 239.97981262 C455.25575077 239.91338744 462.42581216 239.86816931 469.59619141 239.83520508 C472.27149721 239.82182449 474.94632149 239.79966615 477.62158203 239.77368164 C481.46913751 239.73724916 485.31636586 239.72026172 489.1640625 239.70703125 C490.95500839 239.68380547 490.95500839 239.68380547 492.78213501 239.66011047 C499.6232441 239.65872729 504.57857116 239.92071404 509.875 244.6875 C511.57458046 248.18108205 511.19294508 251.14109842 511 255 C511.66 255.0825 512.32 255.165 513 255.25 C518.14008712 256.53502178 522.61109606 259.07406404 527 262 C506.24221761 262.0233612 485.48443739 262.04099503 464.72664452 262.05181217 C455.08842911 262.05696827 445.45022188 262.06399793 435.81201172 262.07543945 C427.41127569 262.08540721 419.01054558 262.09185842 410.6098038 262.09408849 C406.16177108 262.09539204 401.71375529 262.09845542 397.265728 262.10573006 C393.07810471 262.11252325 388.89050531 262.11461023 384.70287704 262.11310768 C383.1670163 262.11338252 381.63115474 262.11536806 380.09529877 262.11920547 C377.99541862 262.12419426 375.89562816 262.1229792 373.79574585 262.12025452 C372.03419946 262.12163721 372.03419946 262.12163721 370.23706627 262.12304783 C367.07507058 262.00285359 364.10486006 261.59376168 361 261 C361.7734375 259.824375 361.7734375 259.824375 362.5625 258.625 C366.11614236 249.663641 361.72189179 238.63226323 359.61328125 229.5546875 C359.26989309 228.05716476 358.92698224 226.55953249 358.58451843 225.0617981 C357.86616301 221.92590254 357.14380706 218.79096668 356.41821289 215.65673828 C355.50600188 211.71611531 354.60102804 207.77387925 353.69873238 203.83097553 C350.26820432 188.84538243 346.77369556 173.88384462 342.9959259 158.98127747 C340.82142013 150.37846371 338.87797681 141.73415783 337 133.0625 C334.86203443 123.21534899 332.6313844 113.3987755 330.2578125 103.60546875 C327.76850336 93.32401964 325.39100685 83.02012414 323.0546875 72.703125 C322.71058097 71.18573843 322.3664443 69.66835869 322.02227783 68.15098572 C320.61412798 61.93964472 319.20751002 55.72796626 317.80810547 49.51464844 C316.93665462 45.64633855 316.06024782 41.77917855 315.18078995 37.91268158 C314.85290219 36.4668963 314.52678855 35.02070725 314.20266342 33.57407379 C311.79211271 22.81907124 309.10003558 12.25008896 305 2 C204.35 2 103.7 2 0 2 C0 1.34 0 0.68 0 0 Z " fill="#192432" transform="translate(65,604)" data-index="11"></path>
<path d="M0 0 C0.495 3.96 0.495 3.96 1 8 C1.6882486 7.99333817 2.37649719 7.98667633 3.08560181 7.97981262 C10.25575077 7.91338744 17.42581216 7.86816931 24.59619141 7.83520508 C27.27149721 7.82182449 29.94632149 7.79966615 32.62158203 7.77368164 C36.46913751 7.73724916 40.31636586 7.72026172 44.1640625 7.70703125 C45.95500839 7.68380547 45.95500839 7.68380547 47.78213501 7.66011047 C54.6232441 7.65872729 59.57857116 7.92071404 64.875 12.6875 C66.57458046 16.18108205 66.19294508 19.14109842 66 23 C66.99 23.12375 66.99 23.12375 68 23.25 C73.14008712 24.53502178 77.61109606 27.07406404 82 30 C61.10283383 30.0296027 40.20908312 29.9578904 19.3125 29.78125 C16.53328657 29.75857198 13.75407002 29.73628667 10.97485352 29.71398926 C4.50895485 29.66189685 -1.95693244 29.60851548 -8.42281628 29.5546174 C-15.80914096 29.49311355 -23.19547777 29.43312826 -30.58181572 29.37324238 C-45.7212241 29.25046471 -60.860617 29.12587149 -76 29 C-75.34 28.67 -74.68 28.34 -74 28 C-72.93283296 26.20067421 -72.93283296 26.20067421 -72 24 C-71.65195312 23.24847656 -71.30390625 22.49695313 -70.9453125 21.72265625 C-69.89488776 18.69725938 -69.79812652 16.3777494 -69.875 13.1875 C-69.89304687 12.21167969 -69.91109375 11.23585938 -69.9296875 10.23046875 C-69.95289063 9.49441406 -69.97609375 8.75835938 -70 8 C-69.32507507 8.0030162 -68.65015015 8.00603241 -67.95477295 8.00914001 C-60.88048144 8.03385061 -53.80753225 8.00935544 -46.73339844 7.95727539 C-44.09931623 7.94419862 -41.46514211 7.94334317 -38.83105469 7.95532227 C-35.02709113 7.97044021 -31.2256341 7.94047883 -27.421875 7.90234375 C-26.25887878 7.91659897 -25.09588257 7.93085419 -23.89764404 7.94554138 C-15.97081024 7.80761741 -10.96106205 5.87556893 -4.34844971 1.49952698 C-2 0 -2 0 0 0 Z " fill="#222D3D" transform="translate(510,836)" data-index="12"></path>
<path d="M0 0 C8.77794396 4.08026753 14.82633149 10.0550932 18.3046875 19.125 C20.88106291 27.7071154 19.46813802 35.49523003 15.80078125 43.515625 C13.08767261 48.2476265 9.35875395 51.07867641 4.3046875 53.125 C-3.6357217 53.9659793 -11.17649073 54.13405136 -17.6953125 49.125 C-23.40447409 44.45865575 -28.0327466 39.45068099 -29.6953125 32.125 C-30.41874365 24.70229497 -31.18953227 16.38533256 -27.1015625 9.80078125 C-19.74055936 1.02891917 -11.53024598 -3.74315232 0 0 Z " fill="#55677A" transform="translate(245.6953125,701.875)" data-index="13"></path>
<path d="M0 0 C0.33 0 0.66 0 1 0 C2.83881079 12.24663015 3.89600069 24.53736025 4.94570923 36.87243652 C7.0175605 61.14619697 9.44756373 85.36168595 12.12011719 109.57592773 C12.2456749 110.7180925 12.3712326 111.86025726 12.50059509 113.03703308 C12.73579014 115.17124333 12.97309799 117.30522221 13.21290588 119.43891907 C13.31707321 120.38107773 13.42124054 121.32323639 13.52856445 122.29394531 C13.66582695 123.51951141 13.66582695 123.51951141 13.80586243 124.76983643 C13.98604904 126.83973773 14 128.9222708 14 131 C14.9075 130.835 15.815 130.67 16.75 130.5 C29.55075742 128.77434457 40.21400312 130.30601509 50.875 137.9375 C52.5962826 139.27516825 54.30602837 140.62791026 56 142 C56.66644531 142.51433594 57.33289063 143.02867187 58.01953125 143.55859375 C59.39634996 144.64521648 60.70851034 145.81322572 62 147 C62 147.66 62 148.32 62 149 C56.48846497 146.99183674 51.45948237 144.08385237 46.32617188 141.27734375 C33.97173552 134.6224207 23.16712852 135.82296255 9.47265625 137.171875 C7.50147768 137.35940016 5.53029902 137.54692435 3.55911636 137.73440647 C0.77414309 138.00062115 -2.01035547 138.27164871 -4.79489517 138.54235458 C-8.40025943 138.89175983 -12.00616218 139.23550336 -15.61206055 139.5793457 C-17.06477387 139.71790748 -18.51748689 139.85647254 -19.97019958 139.99504089 C-20.68823698 140.06351919 -21.40627438 140.13199749 -22.14607048 140.20255089 C-24.31923713 140.41005357 -26.49233587 140.618255 -28.66542053 140.82661438 C-39.97722594 141.91009853 -51.29346221 142.93921734 -62.61224365 143.94702148 C-76.43955731 145.1784497 -90.2467663 146.47787957 -104.03051758 148.13745117 C-109.06456236 148.73421247 -113.930149 149.14141844 -119 149 C-118.505 148.01 -118.505 148.01 -118 147 C-115.09863281 146.36157227 -115.09863281 146.36157227 -111.203125 145.81640625 C-110.49967957 145.71537094 -109.79623413 145.61433563 -109.07147217 145.51023865 C-106.79875864 145.18582193 -104.52452222 144.87395611 -102.25 144.5625 C-100.79415316 144.35695153 -99.33842237 144.15057934 -97.8828125 143.94335938 C-94.84506863 143.51204477 -91.80640196 143.08808253 -88.76708984 142.66796875 C-85.64488862 142.23443824 -82.52600629 141.78374302 -79.40869141 141.31640625 C-61.4944064 138.64968142 -43.49486367 136.67166231 -25.50415039 134.60229492 C-20.87419485 134.06958629 -16.244546 133.53435207 -11.61529922 132.99551773 C-9.46678909 132.74648788 -7.31787117 132.50121748 -5.16891479 132.256073 C-3.22881027 132.03046188 -3.22881027 132.03046188 -1.24951172 131.80029297 C-0.11150116 131.66944305 1.0265094 131.53859314 2.19900513 131.40377808 C5.07419981 131.07395224 5.07419981 131.07395224 8 130 C7.93006836 129.40429199 7.86013672 128.80858398 7.78808594 128.19482422 C5.70430828 110.08069911 4.23348377 91.93107239 2.875 73.75 C2.78891479 72.61657166 2.70282959 71.48314331 2.61413574 70.31536865 C1.08307283 50.06623949 -0.26521436 29.75571621 -0.0625 9.4375 C-0.05798828 8.50099609 -0.05347656 7.56449219 -0.04882812 6.59960938 C-0.03754658 4.3997083 -0.01966095 2.19984214 0 0 Z " fill="#192434" transform="translate(699,644)" data-index="14"></path>
<path d="M0 0 C1.91601562 0.57299805 1.91601562 0.57299805 4 2 C4.84960938 4.97973633 4.84960938 4.97973633 5.34375 8.83203125 C5.43831482 9.52790344 5.53287964 10.22377563 5.63031006 10.94073486 C5.93732771 13.22942913 6.21866044 15.52051999 6.5 17.8125 C6.70756387 19.3959818 6.91688976 20.97923358 7.12792969 22.56225586 C7.55688008 25.79630313 7.97640789 29.03136266 8.38867188 32.26757812 C8.95080979 36.65707598 9.55217917 41.0401709 10.171875 45.421875 C10.44547852 47.36163208 10.44547852 47.36163208 10.72460938 49.34057617 C10.89798828 50.56881104 11.07136719 51.7970459 11.25 53.0625 C12.321577 60.69748615 13.30318067 68.32092118 14 76 C9.73128529 77.34018305 5.45969936 78.67097109 1.1875 80 C-0.02744141 80.3815625 -1.24238281 80.763125 -2.49414062 81.15625 C-3.65751953 81.5171875 -4.82089844 81.878125 -6.01953125 82.25 C-7.62985229 82.75273438 -7.62985229 82.75273438 -9.27270508 83.265625 C-12 84 -12 84 -15 84 C-14.60095459 84.79172607 -14.20190918 85.58345215 -13.79077148 86.39916992 C-12.31290571 89.34777037 -10.84781421 92.30202822 -9.39086914 95.26098633 C-8.75849119 96.53885941 -8.12116223 97.81429506 -7.47875977 99.0871582 C-6.55464255 100.92036052 -5.64885659 102.7616754 -4.74609375 104.60546875 C-3.92129517 106.26292114 -3.92129517 106.26292114 -3.07983398 107.95385742 C-1.89779696 111.28830823 -1.78250958 112.71343735 -3 116 C-4.28759766 117.72583008 -4.28759766 117.72583008 -5.9140625 119.26953125 C-6.80931641 120.13868164 -6.80931641 120.13868164 -7.72265625 121.02539062 C-8.35042969 121.61513672 -8.97820312 122.20488281 -9.625 122.8125 C-13.37714704 126.40064062 -17.04320793 129.97806049 -20.4296875 133.91796875 C-24.89802941 139.11180485 -29.79863491 143.84695987 -34.68359375 148.64453125 C-38.71059979 152.62784463 -42.54630815 156.69293044 -46.24023438 160.98632812 C-50.03638387 165.33020174 -54.0646298 169.46452444 -58.0390625 173.64453125 C-63.50973986 179.42148206 -68.83248207 185.29283764 -73.8125 191.5 C-74.534375 192.325 -75.25625 193.15 -76 194 C-76.66 194 -77.32 194 -78 194 C-78.25523437 194.57596924 -78.51046875 195.15193848 -78.7734375 195.74536133 C-80.12980009 198.23859551 -81.67701924 200.0124926 -83.625 202.07421875 C-84.33140625 202.82380859 -85.0378125 203.57339844 -85.765625 204.34570312 C-86.87164063 205.50489258 -86.87164063 205.50489258 -88 206.6875 C-89.10601563 207.8640918 -89.10601563 207.8640918 -90.234375 209.06445312 C-95.72829433 214.86414717 -95.72829433 214.86414717 -98 216 C-96.29980348 212.07129732 -93.70958317 208.88396131 -91.0625 205.5625 C-90.57668457 204.94850342 -90.09086914 204.33450684 -89.59033203 203.7019043 C-85.37145466 198.40079316 -81.01192154 193.22682605 -76.609375 188.078125 C-74.22527908 185.28333811 -71.92194485 182.42948955 -69.625 179.5625 C-65.00072714 173.87364633 -60.01350596 168.55772025 -55 163.21484375 C-52.7435636 160.80765406 -50.5336093 158.370892 -48.375 155.875 C-41.08634572 147.46089175 -33.4888424 139.41705846 -25.57373047 131.59301758 C-22.02907161 128.07452447 -18.67008866 124.45603437 -15.42578125 120.65625 C-13.39027633 118.29171826 -11.30374299 116.10627931 -9 114 C-8.34 114 -7.68 114 -7 114 C-9.98639622 105.96287839 -13.19809003 98.09087706 -16.76391602 90.29492188 C-18.08688902 87.35188463 -19 85.26606793 -19 82 C-15.64668093 80.8724628 -12.29219604 79.74843309 -8.9375 78.625 C-7.99455078 78.30789063 -7.05160156 77.99078125 -6.08007812 77.6640625 C-1.08036524 75.99168467 3.91599992 74.39616091 9 73 C8.41544689 67.2548467 7.63330405 61.58686418 6.69238281 55.89013672 C3.65119665 37.35184234 1.84531123 18.68748461 0 0 Z " fill="#192434" transform="translate(665,491)" data-index="15"></path>
<path d="M0 0 C-0.58354716 4.04656473 -2.67325362 6.41661587 -5.1875 9.5625 C-6.10484739 10.72500057 -7.02008889 11.889165 -7.93359375 13.0546875 C-8.42843262 13.68600586 -8.92327148 14.31732422 -9.43310547 14.96777344 C-12.27621787 18.65522555 -15.00501048 22.42678393 -17.75 26.1875 C-23.18976371 33.63213863 -28.78381636 40.93655497 -34.55761719 48.12573242 C-37.32367317 51.61713303 -39.67612232 54.67193834 -41 59 C-39.84371094 60.10408203 -39.84371094 60.10408203 -38.6640625 61.23046875 C-37.65064388 62.21573685 -36.63764506 63.20143687 -35.625 64.1875 C-35.11710937 64.67025391 -34.60921875 65.15300781 -34.0859375 65.65039062 C-31.11654707 68.56117467 -29.21251213 71.00455339 -28 75 C-38.25390625 83.7890625 -38.25390625 83.7890625 -40.11767578 85.37988281 C-41.40612414 86.48885082 -42.68537217 87.60857354 -43.95654297 88.73730469 C-44.88877686 89.55956543 -44.88877686 89.55956543 -45.83984375 90.3984375 C-46.39921631 90.89778809 -46.95858887 91.39713867 -47.53491211 91.91162109 C-49 93 -49 93 -51 93 C-44.76897396 134.09094782 -34.48920554 172.76489963 -21 212 C-20.67 206.06 -20.34 200.12 -20 194 C-19.67 194 -19.34 194 -19 194 C-19 205.55 -19 217.1 -19 229 C-19.33 229 -19.66 229 -20 229 C-20.01417969 228.41734375 -20.02835938 227.8346875 -20.04296875 227.234375 C-20.48276179 219.67468931 -22.95404276 213.85904445 -26 207 C-38.2193562 178.19581873 -46.84594139 148.00761115 -52.5 117.25 C-52.62996368 116.55458099 -52.75992737 115.85916199 -52.89382935 115.14266968 C-56.10920431 97.75556896 -56.10920431 97.75556896 -55 92 C-52.9453125 89.1171875 -52.9453125 89.1171875 -50.125 86.875 C-49.13113281 86.0603125 -48.13726562 85.245625 -47.11328125 84.40625 C-46.08589844 83.6121875 -45.05851562 82.818125 -44 82 C-43.02417969 81.2059375 -42.04835938 80.411875 -41.04296875 79.59375 C-38.71498544 77.70205541 -36.3690789 75.83976192 -34 74 C-36.90174708 69.94578599 -39.71513821 66.15129289 -43.4375 62.8125 C-46 60 -46 60 -45.921875 57.6796875 C-44.7571968 54.2942246 -43.05349935 52.10917945 -40.8125 49.3125 C-39.89965131 48.15892401 -38.98689622 47.00527396 -38.07421875 45.8515625 C-37.57970215 45.23313477 -37.08518555 44.61470703 -36.57568359 43.97753906 C-33.72866942 40.40443481 -30.9294191 36.79406402 -28.125 33.1875 C-27.53517334 32.43025635 -26.94534668 31.6730127 -26.33764648 30.89282227 C-22.30767428 25.71017362 -18.31966644 20.49787009 -14.375 15.25 C-13.89047363 14.60699951 -13.40594727 13.96399902 -12.90673828 13.30151367 C-10.7874548 10.46969313 -8.7719912 7.64679364 -6.8515625 4.671875 C-4.93464363 1.90568828 -3.56234759 0 0 0 Z " fill="#192434" transform="translate(535,492)" data-index="16"></path>
<path d="M0 0 C0.33 0 0.66 0 1 0 C1.92563303 6.07898001 2.74984882 12.16440893 3.51513672 18.265625 C3.86128993 20.93166703 4.22621262 23.59007594 4.61376953 26.25 C5.16101672 30.02873836 5.64326258 33.81184077 6.09115601 37.60357666 C6.2795283 39.11100059 6.48855016 40.61599522 6.71865845 42.11761475 C7.43626932 46.85845845 7.89878636 51.23633202 7 56 C3.84257768 59.72798308 0.27690567 61.74016134 -4 64 C-5.58442932 65.13670625 -7.15000859 66.30056784 -8.6875 67.5 C-9.33074219 67.9846875 -9.97398437 68.469375 -10.63671875 68.96875 C-11.08660156 69.3090625 -11.53648437 69.649375 -12 70 C-12.67836243 67.02307914 -13.34284652 64.04411189 -14 61.0625 C-14.19078125 60.23169922 -14.3815625 59.40089844 -14.578125 58.54492188 C-14.75859375 57.71669922 -14.9390625 56.88847656 -15.125 56.03515625 C-15.29257812 55.2862915 -15.46015625 54.53742676 -15.6328125 53.76586914 C-16.71678223 45.60078066 -15.5577822 39.55442428 -12.5 31.93359375 C-12.14486328 31.01409439 -11.78972656 30.09459503 -11.42382812 29.14723206 C-10.29660648 26.23828146 -9.14873682 23.33801229 -8 20.4375 C-7.22778299 18.4556167 -6.4569355 16.47319921 -5.6875 14.49023438 C-3.80744795 9.65383454 -1.90884621 4.82510377 0 0 Z " fill="#9746A7" transform="translate(447,753)" data-index="17"></path>
<path d="M0 0 C-4.57401752 13.50424221 -20.42475681 23.88857053 -32.68652344 30.05126953 C-45.54803714 36.12717983 -57.91694516 38.63420637 -72 39 C-72.33 40.32 -72.66 41.64 -73 43 C-73 37.06 -73 31.12 -73 25 C-74.32 24.67 -75.64 24.34 -77 24 C-76.175 24.03480469 -75.35 24.06960938 -74.5 24.10546875 C-55.20468096 24.55770279 -37.33902922 19.19714038 -20 11.0625 C-18.69156128 10.45233032 -18.69156128 10.45233032 -17.35668945 9.82983398 C-12.31900786 7.39003176 -7.94105734 4.66726547 -3.59375 1.13452148 C-2 0 -2 0 0 0 Z " fill="#E59A6A" transform="translate(620,444)" data-index="18"></path>
<path d="M0 0 C0.33 0 0.66 0 1 0 C0.44088323 6.83201053 -0.5605922 13.44525372 -1.9609375 20.15234375 C-2.15217194 21.0919545 -2.34340637 22.03156525 -2.54043579 22.99964905 C-3.1472728 25.97991395 -3.76041046 28.95882491 -4.375 31.9375 C-7.10695378 45.19493059 -9.75050269 58.43105441 -11.6864624 71.83145142 C-11.89068599 73.24394159 -12.09963761 74.6557588 -12.31402588 76.06674194 C-13.9690046 87.01205598 -14.31765542 97.70347939 -14.25 108.75 C-14.24822754 109.59096222 -14.24645508 110.43192444 -14.24462891 111.29837036 C-14.21156687 124.7506469 -13.60757044 138.06108312 -12.4375 151.46484375 C-12.0435155 156.00105204 -11.91236508 160.44846134 -12 165 C-14.30387835 162.69612165 -14.35933192 161.9421316 -14.78125 158.80859375 C-14.90008545 157.95612061 -15.0189209 157.10364746 -15.14135742 156.2253418 C-15.3188855 154.84536011 -15.3188855 154.84536011 -15.5 153.4375 C-15.62673096 152.48077393 -15.75346191 151.52404785 -15.8840332 150.53833008 C-16.14040637 148.59044607 -16.39343463 146.6421188 -16.64306641 144.69335938 C-16.94177531 142.43935347 -17.27545415 140.19767515 -17.63671875 137.953125 C-20.67686664 117.16800042 -20.12843347 94.74577412 -17 74 C-16.87641113 73.13165527 -16.75282227 72.26331055 -16.62548828 71.36865234 C-13.13512026 47.15607518 -7.47863927 23.2851406 0 0 Z " fill="#192434" transform="translate(460,585)" data-index="19"></path>
<path d="M0 0 C3.6875 0.4375 3.6875 0.4375 6.5 2.625 C11.09726455 8.53576871 11.37369672 14.17005291 10.6875 21.4375 C9.60860309 25.59790385 8.36002947 27.98914702 4.6875 30.4375 C1.3125 30.9375 1.3125 30.9375 -2.3125 30.4375 C-5.34229229 27.98738736 -7.07986631 25.13540108 -8.3125 21.4375 C-8.45869515 19.14898355 -8.53341336 16.85549684 -8.5625 14.5625 C-8.60117187 12.74105469 -8.60117187 12.74105469 -8.640625 10.8828125 C-8.11034798 5.3149038 -5.81923463 0.76857816 0 0 Z " fill="#331D13" transform="translate(578.3125,322.5625)" data-index="20"></path>
<path d="M0 0 C2.50153022 0.05457884 3.77433312 0.18962098 5.7890625 1.703125 C10.53380451 7.1970368 10.52307277 12.53779547 10.48046875 19.5078125 C10.05917132 23.81066362 8.77709541 26.0725943 6.1875 29.5 C3.09576248 31.04586876 0.59320448 30.79359521 -2.8125 30.5 C-6.58800036 27.84694569 -7.82636436 24.93761039 -8.8125 20.5 C-9.45666394 13.76453145 -8.6597564 8.63255225 -5.8125 2.5 C-3.8125 0.5 -3.8125 0.5 0 0 Z " fill="#321C12" transform="translate(491.8125,326.5)" data-index="21"></path>
<path d="M0 0 C3.517952 2.418592 5.49670799 4.93132749 7.5 8.6875 C7.5 9.3475 7.5 10.0075 7.5 10.6875 C1.95742111 10.19482632 -2.76236879 8.62050663 -7.94921875 6.625 C-13.13453759 4.71921666 -17.70864823 4.4955229 -23.1875 4.5 C-23.99171387 4.49935547 -24.79592773 4.49871094 -25.62451172 4.49804688 C-31.17871222 4.54754755 -36.15025507 5.10239039 -41.5 6.6875 C-40.63792525 2.74539121 -39.40237596 0.58987596 -36.5 -2.3125 C-25.31769488 -8.10333658 -10.73257366 -6.16129229 0 0 Z " fill="#321C13" transform="translate(600.5,292.3125)" data-index="22"></path>
<path d="M0 0 C0.99 0.495 0.99 0.495 2 1 C1.04867187 1.60521484 1.04867187 1.60521484 0.078125 2.22265625 C-7.68947411 7.27588716 -15.08303289 12.73750686 -22.44042969 18.36743164 C-27.78013098 22.42789643 -33.24377961 26.22311659 -38.84423828 29.91503906 C-42.10009757 32.06613286 -45.33295961 34.2493311 -48.55859375 36.4453125 C-49.11432068 36.82332504 -49.67004761 37.20133759 -50.24261475 37.59080505 C-51.38702009 38.36929112 -52.53134688 39.1478927 -53.67559814 39.92660522 C-58.53046199 43.22874345 -63.39123708 46.52218764 -68.25201416 49.81561279 C-69.9356196 50.95637761 -71.61893856 52.09756518 -73.30224609 53.23876953 C-76.23964831 55.2269595 -79.18140475 57.20849468 -82.125 59.1875 C-83.0008374 59.78127441 -83.8766748 60.37504883 -84.77905273 60.98681641 C-85.57641846 61.52097168 -86.37378418 62.05512695 -87.1953125 62.60546875 C-88.23196045 63.30385864 -88.23196045 63.30385864 -89.28955078 64.01635742 C-91 65 -91 65 -93 65 C-93 65.66 -93 66.32 -93 67 C-95.56306864 68.40223996 -98.1276732 69.80145117 -100.6953125 71.1953125 C-102.98994729 72.44841093 -105.27509994 73.7124845 -107.5546875 74.9921875 C-108.72390808 75.64071561 -109.89317794 76.28915488 -111.0625 76.9375 C-112.14660156 77.54464844 -113.23070312 78.15179688 -114.34765625 78.77734375 C-115.22292969 79.18082031 -116.09820312 79.58429688 -117 80 C-117.66 79.67 -118.32 79.34 -119 79 C-107.25999821 70.08729222 -94.76507746 62.26343808 -82.30859375 54.40234375 C-73.85179973 49.06311818 -65.45376567 43.74040256 -57.39160156 37.81860352 C-51.30467612 33.39799623 -44.90979947 29.47006365 -38.54199219 25.47070312 C-31.15414318 20.80229219 -23.97236944 15.88877774 -16.87255859 10.79394531 C-5.32886332 2.55441479 -5.32886332 2.55441479 0 0 Z " fill="#281913" transform="translate(574,206)" data-index="23"></path>
<path d="M0 0 C0.66 0 1.32 0 2 0 C2.72048997 13.84941826 -0.00120077 27.03245276 -4.3737793 40.1159668 C-5.91929873 44.91695464 -6.36133547 48.94669648 -6 54 C-4.24790764 56.73680006 -4.24790764 56.73680006 -1 58 C2.36255818 58.3080206 5.6347033 58.23524404 9 58 C8.67 58.99 8.34 59.98 8 61 C4.27652266 62.24115911 0.86785828 62.5420862 -3 62 C-6.44762142 60.11356564 -9.4876951 58.0360221 -12 55 C-13.49843508 47.44098664 -10.90319963 39.75897031 -8.8125 32.5625 C-8.17134712 30.27488747 -7.53072696 27.98712557 -6.890625 25.69921875 C-6.57158203 24.57435059 -6.25253906 23.44948242 -5.92382812 22.29052734 C-4.57894605 17.50027347 -3.31616075 12.68978405 -2.0625 7.875 C-1.6576822 6.33069505 -1.25274884 4.78642039 -0.84765625 3.2421875 C-0.42806641 1.63730469 -0.42806641 1.63730469 0 0 Z " fill="#E08A62" transform="translate(526,327)" data-index="24"></path>
<path d="M0 0 C2.40327908 1.45583252 3.76396532 2.65802953 4.58203125 5.375 C4.69933594 5.98859375 4.81664062 6.6021875 4.9375 7.234375 C3.39642578 7.25564453 3.39642578 7.25564453 1.82421875 7.27734375 C-11.33439988 7.65153003 -22.31709726 11.07132799 -31.65625 20.9140625 C-33.0625 22.234375 -33.0625 22.234375 -35.0625 22.234375 C-34.70101734 15.18546307 -30.60065822 9.77253322 -25.75 4.921875 C-17.90791 -0.00222802 -9.26192038 -3.43813711 0 0 Z " fill="#321C13" transform="translate(499.0625,291.765625)" data-index="25"></path>
<path d="M0 0 C0.33 0 0.66 0 1 0 C1.34654062 3.63867652 1.1496871 5.70062581 -0.5 9 C-6.7421338 16.49056056 -14.62672164 20.40668041 -24 22.75 C-31.3483627 23.36236356 -37.46550798 23.81178701 -44 20 C-45.1875 17.890625 -45.1875 17.890625 -46 16 C-44.98421875 16.03480469 -43.9684375 16.06960938 -42.921875 16.10546875 C-28.955648 16.44282546 -15.72043104 14.68632682 -4.79296875 5.0546875 C-3.58209538 3.83641572 -2.39459719 2.59402847 -1.2421875 1.3203125 C-0.83226562 0.88460938 -0.42234375 0.44890625 0 0 Z " fill="#2B170F" transform="translate(570,397)" data-index="26"></path>
<path d="M0 0 C0.66 0.33 1.32 0.66 2 1 C2.66724444 3.47569249 3.20996358 5.88906892 3.69140625 8.40234375 C3.841577 9.15407364 3.99174774 9.90580353 4.14646912 10.68031311 C4.46398224 12.27930965 4.77725686 13.87915266 5.08666992 15.47973633 C5.55487328 17.89810639 6.0369692 20.31336717 6.52148438 22.72851562 C11.31672714 46.9040477 12.74113355 72.72155585 3 96 C1.375 97.8515625 1.375 97.8515625 0 99 C-1.27587022 96.44825957 -0.81750373 95.69715135 -0.0390625 93 C0.18523438 92.19433594 0.40953125 91.38867188 0.640625 90.55859375 C1.12132702 88.88380744 1.60305783 87.20931599 2.0859375 85.53515625 C5.08688838 74.7419636 5.30094192 63.97237041 5.375 52.8125 C5.38333862 51.75091171 5.38333862 51.75091171 5.3918457 50.6678772 C5.45037749 35.71948541 3.33121703 21.41677666 0.45898438 6.77612305 C0 4 0 4 0 0 Z " fill="#291A13" transform="translate(710,407)" data-index="27"></path>
<path d="M0 0 C0 3.5651868 -0.45514315 3.82264534 -2.8125 6.3125 C-19.95148146 25.25194012 -31.76280378 46.23541542 -41 70 C-43.89057948 61.20020579 -36.55935641 47.97229426 -32.69140625 40.10546875 C-24.72448123 24.87106692 -13.90421326 10.31602919 0 0 Z " fill="#182434" transform="translate(740,550)" data-index="28"></path>
<path d="M0 0 C0.33 0 0.66 0 1 0 C1.03440186 0.5576001 1.06880371 1.1152002 1.10424805 1.68969727 C2.25877599 19.11501432 5.03721119 34.82635254 16 49 C17.485 49.495 17.485 49.495 19 50 C16.6875 51.5625 16.6875 51.5625 14 53 C8.94012875 51.31337625 7.33133257 46.57699937 5 42 C-0.46582061 29.61788211 -2.06299099 14.44807207 -1 1 C-0.67 0.67 -0.34 0.34 0 0 Z " fill="#2A1A13" transform="translate(453,464)" data-index="29"></path>
<path d="M0 0 C3.34047427 -0.39542717 4.62866114 -0.28313046 7.3515625 1.79296875 C8.10179687 2.58316406 8.85203125 3.37335937 9.625 4.1875 C10.38039063 4.96480469 11.13578125 5.74210938 11.9140625 6.54296875 C13.93123324 8.91899945 15.43723712 11.31258984 17 14 C17.66 14.66 18.32 15.32 19 16 C12.92688722 15.58559936 6.97502517 14.71610464 1 13.5625 C-0.27875 13.31628906 -1.5575 13.07007813 -2.875 12.81640625 C-6 12 -6 12 -8 10 C-5.69 10 -3.38 10 -1 10 C-1.020625 8.72125 -1.04125 7.4425 -1.0625 6.125 C-1.125 2.25 -1.125 2.25 0 0 Z " fill="#172131" transform="translate(575,793)" data-index="30"></path>
<path d="M0 0 C-1.43370043 3.63764638 -2.95351513 4.84860922 -6.41015625 6.59375 C-7.30951904 7.06063232 -8.20888184 7.52751465 -9.13549805 8.00854492 C-10.10140869 8.5007251 -11.06731934 8.99290527 -12.0625 9.5 C-25.81565931 16.75154353 -38.26386867 25.23095472 -49.8984375 35.55078125 C-50.59195312 36.02902344 -51.28546875 36.50726562 -52 37 C-52.99 36.67 -53.98 36.34 -55 36 C-41.31804556 23.81687955 -26.68733376 13.44275328 -11 4 C-10.35063477 3.59539551 -9.70126953 3.19079102 -9.03222656 2.77392578 C-5.64351643 0.71926129 -4.07507732 0 0 0 Z " fill="#E19465" transform="translate(494,805)" data-index="31"></path>
<path d="M0 0 C5.10499684 0.51371037 8.73258732 1.76117077 13.3125 4 C26.53064658 9.7433588 42.8601501 8.01685609 57 8 C57 8.33 57 8.66 57 9 C38.52 9 20.04 9 1 9 C0.67 6.03 0.34 3.06 0 0 Z " fill="#F8F8ED" transform="translate(510,835)" data-index="32"></path>
<path d="M0 0 C0.66 1.32 1.32 2.64 2 4 C0.046875 3.83723958 -1.90625 3.67447917 -3.859375 3.51171875 C-7.20632903 4.27516629 -8.12143257 6.19705812 -10 9 C-11.34663027 11.39389636 -12.56183875 13.83673912 -13.75 16.3125 C-14.06582031 16.95767578 -14.38164063 17.60285156 -14.70703125 18.26757812 C-15.47691708 19.84234459 -16.23924891 21.4208004 -17 23 C-17.99 23 -18.98 23 -20 23 C-20.47496526 15.41186449 -17.12379316 9.05589274 -12.546875 3.11328125 C-8.60525154 -0.66591267 -5.11133405 -0.44063225 0 0 Z " fill="#E08A62" transform="translate(699,330)" data-index="33"></path>
<path d="M0 0 C-5.59486922 4.73639722 -11.48276282 8.54294111 -17.89038086 12.06811523 C-22.07826236 14.39547795 -25.8093068 16.95916434 -29.44921875 20.06640625 C-30.21685547 20.52853516 -30.21685547 20.52853516 -31 21 C-31.99 20.67 -32.98 20.34 -34 20 C-26.31078607 12.34217062 -18.63100061 6.99427936 -9 2 C-7.93394531 1.41089844 -6.86789062 0.82179688 -5.76953125 0.21484375 C-3 -1 -3 -1 0 0 Z " fill="#E29565" transform="translate(502,822)" data-index="34"></path>
<path d="M0 0 C2.59376832 1.11494717 3.91467606 2.03383743 6 4 C6 4.99 6 5.98 6 7 C5.21625 6.360625 4.4325 5.72125 3.625 5.0625 C-1.56823535 0.9821008 -6.569011 1.23334275 -13 2 C-20.27270882 4.36887511 -25.69568827 7.65954502 -29.81640625 14.16796875 C-31.03083364 16.047726 -32.37079486 17.4746862 -34 19 C-33.01 15.535 -33.01 15.535 -32 12 C-33.32 12 -34.64 12 -36 12 C-36 11.34 -36 10.68 -36 10 C-34.92621094 9.46890625 -33.85242188 8.9378125 -32.74609375 8.390625 C-31.30984158 7.67719255 -29.87364672 6.96364471 -28.4375 6.25 C-27.73302734 5.90195312 -27.02855469 5.55390625 -26.30273438 5.1953125 C-25.60341797 4.84726562 -24.90410156 4.49921875 -24.18359375 4.140625 C-23.12845581 3.61662109 -23.12845581 3.61662109 -22.05200195 3.08203125 C-20.08834517 2.04658486 -18.25352165 0.89572481 -16.3828125 -0.296875 C-10.77374812 -3.12083813 -5.86041013 -1.61536946 0 0 Z " fill="#F5DEB0" transform="translate(498,290)" data-index="35"></path>
<path d="M0 0 C4.49629129 0.67868548 7.74087672 2.73516472 11.3125 5.5 C11.3125 5.83 11.3125 6.16 11.3125 6.5 C3.0625 6.5 -5.1875 6.5 -13.6875 6.5 C-13.6875 6.17 -13.6875 5.84 -13.6875 5.5 C-11.8003125 5.0978125 -11.8003125 5.0978125 -9.875 4.6875 C-6.62160869 3.92730078 -6.62160869 3.92730078 -4.0625 1.875 C-2.6875 0.5 -2.6875 0.5 0 0 Z " fill="#2A384C" transform="translate(576.6875,858.5)" data-index="36"></path>
<path d="M0 0 C-1.32 0.33 -2.64 0.66 -4 1 C-4 2.32 -4 3.64 -4 5 C-3.01 4.835 -2.02 4.67 -1 4.5 C5.09829063 3.63761547 10.93867358 3.78773472 17 5 C17 5.33 17 5.66 17 6 C15.09927734 6.07347656 15.09927734 6.07347656 13.16015625 6.1484375 C11.46091904 6.22354191 9.76170124 6.29908632 8.0625 6.375 C6.81629883 6.42140625 6.81629883 6.42140625 5.54492188 6.46875 C-0.18247369 6.73617703 -5.43358471 7.61822587 -11 9 C-10.19941981 5.12915353 -8.64181007 2.96202947 -6 0 C-3.50907189 -1.24546405 -2.58919267 -0.7767578 0 0 Z " fill="#23120C" transform="translate(570,290)" data-index="37"></path>
<path d="M0 0 C0.33 0 0.66 0 1 0 C1 11.55 1 23.1 1 35 C0.67 35 0.34 35 0 35 C-0.01417969 34.41734375 -0.02835938 33.8346875 -0.04296875 33.234375 C-0.42174208 26.72356853 -2.1553774 21.58786026 -4.84375 15.6640625 C-6.70775116 11.36930306 -6.70775116 11.36930306 -7 9 C-6.34 8.34 -5.68 7.68 -5 7 C-3.68 10.63 -2.36 14.26 -1 18 C-0.505 9.09 -0.505 9.09 0 0 Z " fill="#0D1526" transform="translate(515,686)" data-index="38"></path>
<path d="M0 0 C0.33 0 0.66 0 1 0 C1.50338797 5.28557366 0.34676996 7.90950339 -3 12 C-5.25 13.375 -5.25 13.375 -7 14 C-7.66 13.01 -8.32 12.02 -9 11 C-10.32 11.33 -11.64 11.66 -13 12 C-9.7498074 8.61438271 -6.25061222 5.55850818 -2.70703125 2.48828125 C-1.7832102 1.68284459 -0.86665262 0.86665262 0 0 Z " fill="#24120C" transform="translate(570,397)" data-index="39"></path>
<path d="M0 0 C0.33 0 0.66 0 1 0 C1.86897579 6.62594039 2.16380759 13.19952485 2.25 19.875 C2.27126953 20.70749268 2.29253906 21.53998535 2.31445312 22.39770508 C2.31896484 23.19200928 2.32347656 23.98631348 2.328125 24.8046875 C2.3374707 25.51608887 2.34681641 26.22749023 2.35644531 26.96044922 C1.89799327 29.58367413 0.70524579 30.99703968 -1 33 C-1.02946035 29.37501758 -1.04695131 25.75006668 -1.0625 22.125 C-1.07087891 21.11179687 -1.07925781 20.09859375 -1.08789062 19.0546875 C-1.10845895 12.63736985 -0.78323679 6.37009043 0 0 Z " fill="#334153" transform="translate(514,711)" data-index="40"></path>
<path d="M0 0 C0.33 0 0.66 0 1 0 C1 11.22 1 22.44 1 34 C-0.65 33.67 -2.3 33.34 -4 33 C-2.515 32.505 -2.515 32.505 -1 32 C-0.67 21.44 -0.34 10.88 0 0 Z " fill="#02091E" transform="translate(513,757)" data-index="41"></path>
<path d="M0 0 C2.9013912 1.38839579 4.77418831 2.68515585 7 5 C8.65533995 6.34736973 10.32012773 7.68334336 12 9 C11.34 10.65 10.68 12.3 10 14 C7.17071068 11.44928686 5.32106736 8.53378728 3.3125 5.3125 C2.37857422 3.82169922 2.37857422 3.82169922 1.42578125 2.30078125 C0.95527344 1.54152344 0.48476563 0.78226562 0 0 Z " fill="#29160E" transform="translate(640,295)" data-index="42"></path>
<path d="M0 0 C1.93719378 -0.05406122 3.87481921 -0.09282025 5.8125 -0.125 C6.89144531 -0.14820313 7.97039063 -0.17140625 9.08203125 -0.1953125 C12 0 12 0 15 2 C12.11584117 3.44207941 9.58278472 3.09394887 6.375 3.0625 C5.18648437 3.05347656 3.99796875 3.04445313 2.7734375 3.03515625 C1.85820313 3.02355469 0.94296875 3.01195312 0 3 C0 2.01 0 1.02 0 0 Z " fill="#40291E" transform="translate(572,287)" data-index="43"></path>
<path d="M0 0 C0 2.31 0 4.62 0 7 C-0.99 6.67 -1.98 6.34 -3 6 C-3.33 5.34 -3.66 4.68 -4 4 C-4.70125 4.45375 -5.4025 4.9075 -6.125 5.375 C-9.02984591 7.01686943 -11.8139348 8.03677099 -15 9 C-11.6214602 5.03388806 -5.46055995 0 0 0 Z " fill="#0F1524" transform="translate(510,836)" data-index="44"></path>
<path d="M0 0 C2.71486934 3.97610786 2.22440753 8.13901977 2.125 12.75 C2.11597656 13.54277344 2.10695313 14.33554687 2.09765625 15.15234375 C2.07417012 17.10169281 2.03830137 19.05088575 2 21 C1.67 21 1.34 21 1 21 C0.67 19.35 0.34 17.7 0 16 C-0.33 16 -0.66 16 -1 16 C-1.02685095 13.52076199 -1.04676547 11.0418116 -1.0625 8.5625 C-1.07506836 7.50192383 -1.07506836 7.50192383 -1.08789062 6.41992188 C-1.09653588 4.61306441 -1.05220011 2.80612397 -1 1 C-0.67 0.67 -0.34 0.34 0 0 Z " fill="#323F53" transform="translate(554,739)" data-index="45"></path>
<path d="M0 0 C0.66 0.99 1.32 1.98 2 3 C1.01 4.485 1.01 4.485 0 6 C0 7.32 0 8.64 0 10 C-0.66 10 -1.32 10 -2 10 C-2.66 13.3 -3.32 16.6 -4 20 C-4.33 20 -4.66 20 -5 20 C-3.68421053 3.68421053 -3.68421053 3.68421053 0 0 Z " fill="#1B2439" transform="translate(563,679)" data-index="46"></path>
<path d="M0 0 C0.66 0.33 1.32 0.66 2 1 C2.625 3.5625 2.625 3.5625 3 6 C2.236875 6.28875 1.47375 6.5775 0.6875 6.875 C-2.15029308 7.96269013 -2.15029308 7.96269013 -5 10 C-4.745504 8.51793505 -4.47088238 7.03931385 -4.1875 5.5625 C-4.03667969 4.73878906 -3.88585937 3.91507812 -3.73046875 3.06640625 C-3.48941406 2.38449219 -3.24835938 1.70257813 -3 1 C-2.01 0.67 -1.02 0.34 0 0 Z " fill="#3B2016" transform="translate(472,300)" data-index="47"></path>
<path d="M0 0 C0.33 1.32 0.66 2.64 1 4 C-1.64 4.66 -4.28 5.32 -7 6 C-7 4.02 -7 2.04 -7 0 C-2.25 -1.125 -2.25 -1.125 0 0 Z " fill="#391F16" transform="translate(563,408)" data-index="48"></path>
<path d="M0 0 C0.66 0.33 1.32 0.66 2 1 C-4.59874523 6.02761541 -10.95127124 5.40187827 -19 5 C-19 4.67 -19 4.34 -19 4 C-17.87980469 3.79503906 -16.75960937 3.59007812 -15.60546875 3.37890625 C-14.13279176 3.10688311 -12.66013664 2.83474151 -11.1875 2.5625 C-10.44951172 2.42779297 -9.71152344 2.29308594 -8.95117188 2.15429688 C-5.88684924 1.58580263 -2.96071047 0.98690349 0 0 Z " fill="#21110B" transform="translate(690,378)" data-index="49"></path>
<path d="M0 0 C0.99 0 1.98 0 3 0 C3.1953125 1.98567708 3.390625 3.97135417 3.5859375 5.95703125 C3.92665391 8.29988142 3.92665391 8.29988142 6 11 C3.13904359 9.7175023 0.88634082 8.54656011 -1 6 C-1.25 3.375 -1.25 3.375 -1 1 C-0.67 0.67 -0.34 0.34 0 0 Z " fill="#E39068" transform="translate(516,375)" data-index="50"></path>
<path d="M0 0 C2 2 2 2 2.1953125 5.2578125 C2.17210937 6.53398438 2.14890625 7.81015625 2.125 9.125 C2.10695313 10.40632812 2.08890625 11.68765625 2.0703125 13.0078125 C2.04710937 13.99523437 2.02390625 14.98265625 2 16 C1.67 16 1.34 16 1 16 C0.67 14.35 0.34 12.7 0 11 C-0.33 11 -0.66 11 -1 11 C-1.125 3.375 -1.125 3.375 0 0 Z " fill="#2F3C50" transform="translate(555,766)" data-index="51"></path>
<path d="M0 0 C2.74148672 0.37047118 4.58593199 0.68587944 6.8125 2.375 C8 4 8 4 8 7 C4.37 6.67 0.74 6.34 -3 6 C-3 5.67 -3 5.34 -3 5 C-0.36 4.67 2.28 4.34 5 4 C3.35 2.68 1.7 1.36 0 0 Z " fill="#190C08" transform="translate(496,292)" data-index="52"></path>
<path d="M0 0 C1.32 0.66 2.64 1.32 4 2 C2.75 4 2.75 4 1 6 C-0.32 6 -1.64 6 -3 6 C-3 5.34 -3 4.68 -3 4 C-3.66 3.67 -4.32 3.34 -5 3 C-3.35 2.67 -1.7 2.34 0 2 C0 1.34 0 0.68 0 0 Z " fill="#391F15" transform="translate(549,411)" data-index="53"></path>
<path d="M0 0 C-0.56545837 3.95820859 -1.80902348 6.6659053 -4 10 C-4.33 9.34 -4.66 8.68 -5 8 C-4.0625 5.375 -4.0625 5.375 -3 3 C-4.32 3 -5.64 3 -7 3 C-7 2.34 -7 1.68 -7 1 C-4 0 -4 0 0 0 Z " fill="#F7D9A9" transform="translate(469,299)" data-index="54"></path>
<path d="M0 0 C2.31 0 4.62 0 7 0 C7.66 1.32 8.32 2.64 9 4 C5.7 4 2.4 4 -1 4 C-0.67 2.68 -0.34 1.36 0 0 Z " fill="#DC8159" transform="translate(692,330)" data-index="55"></path>
<path d="M0 0 C1.485 0.99 1.485 0.99 3 2 C2.6875 3.9375 2.6875 3.9375 2 6 C1.01 6.33 0.02 6.66 -1 7 C-0.67 4.69 -0.34 2.38 0 0 Z " fill="#EDEFF1" transform="translate(529,565)" data-index="56"></path>
<path d="M0 0 C3.75 0.1875 3.75 0.1875 7 1 C7 1.33 7 1.66 7 2 C5.02 2.33 3.04 2.66 1 3 C0.67 3.99 0.34 4.98 0 6 C-1.32 5.67 -2.64 5.34 -4 5 C-2.4375 2.4375 -2.4375 2.4375 0 0 Z " fill="#E29067" transform="translate(691,330)" data-index="57"></path>
<path d="M0 0 C0.66 0 1.32 0 2 0 C2 2.97 2 5.94 2 9 C1.01 8.67 0.02 8.34 -1 8 C-0.67 5.36 -0.34 2.72 0 0 Z " fill="#DD845D" transform="translate(526,327)" data-index="58"></path>
<path d="M0 0 C0.66 0.33 1.32 0.66 2 1 C-0.97 3.475 -0.97 3.475 -4 6 C-4.99 5.34 -5.98 4.68 -7 4 C-1.7265625 0.77734375 -1.7265625 0.77734375 0 0 Z " fill="#FCECC0" transform="translate(473,295)" data-index="59"></path>
<path d="M0 0 C0.66 0.66 1.32 1.32 2 2 C0.71349294 2.69710731 -0.57940665 3.38242876 -1.875 4.0625 C-2.95394531 4.63677734 -2.95394531 4.63677734 -4.0546875 5.22265625 C-4.69664062 5.47917969 -5.33859375 5.73570312 -6 6 C-6.66 5.67 -7.32 5.34 -8 5 C-4.04 2.525 -4.04 2.525 0 0 Z " fill="#161A2A" transform="translate(503,839)" data-index="60"></path>
<path d="M0 0 C2.29013653 3.4352048 2.17842973 4.985331 2 9 C0.35 8.67 -1.3 8.34 -3 8 C-2.01 7.67 -1.02 7.34 0 7 C0 4.69 0 2.38 0 0 Z " fill="#121E36" transform="translate(512,782)" data-index="61"></path>
<path d="M0 0 C1.32 0.33 2.64 0.66 4 1 C2.25 5.875 2.25 5.875 0 7 C0 4.69 0 2.38 0 0 Z " fill="#903AA0" transform="translate(836,734)" data-index="62"></path>
<path d="M0 0 C0.66 0.33 1.32 0.66 2 1 C1.38125 1.7425 0.7625 2.485 0.125 3.25 C-1.60437281 5.48801188 -2.86106661 7.43739987 -4 10 C-4.33 9.01 -4.66 8.02 -5 7 C-2 2 -2 2 0 0 Z " fill="#FED6A5" transform="translate(692,334)" data-index="63"></path>
<path d="M0 0 C2 2 2 2 2 5 C2.66 5 3.32 5 4 5 C3.67 6.98 3.34 8.96 3 11 C0.43383368 7.15075052 0.44902324 4.5650696 0 0 Z " fill="#A64BBD" transform="translate(715,266)" data-index="64"></path>
<path d="M0 0 C1.85776765 3.13498292 2.20140476 5.37471432 2 9 C1.01 8.67 0.02 8.34 -1 8 C-0.67 5.36 -0.34 2.72 0 0 Z " fill="#EFF0F2" transform="translate(520,630)" data-index="65"></path>
<path d="M0 0 C0.66 0 1.32 0 2 0 C2 2.31 2 4.62 2 7 C1.01 7.33 0.02 7.66 -1 8 C-1.125 2.25 -1.125 2.25 0 0 Z " fill="#303D50" transform="translate(518,626)" data-index="66"></path>
</svg>